<?xml version="1.0" encoding="UTF-8"?>
<svg version="1.1" xmlns="http://www.w3.org/2000/svg" width="354" height="354">
<path d="M0 0 C1.28087494 0.00007553 2.56174988 0.00015106 3.88143921 0.00022888 C5.26422159 0.00533434 6.64700358 0.01055031 8.02978516 0.01586914 C9.45610504 0.01773622 10.88242558 0.01915875 12.30874634 0.02015686 C16.04711708 0.02395924 19.78544844 0.03376987 23.52380371 0.04486084 C27.34480253 0.05512415 31.16580776 0.05966499 34.98681641 0.06469727 C42.47251136 0.07539436 49.95817397 0.09244316 57.44384766 0.11352539 C57.11384766 0.77352539 56.78384766 1.43352539 56.44384766 2.11352539 C57.71615234 2.31655273 57.71615234 2.31655273 59.01416016 2.52368164 C67.30677236 4.04551267 73.81222476 6.42282877 81.18994141 10.39477539 C83.55209616 11.64249219 85.76478258 12.66698052 88.22900391 13.64477539 C91.44384766 15.11352539 91.44384766 15.11352539 93.44384766 18.11352539 C94.43384766 18.77352539 95.42384766 19.43352539 96.44384766 20.11352539 C97.13134766 22.23852539 97.13134766 22.23852539 97.44384766 24.11352539 C98.43384766 24.11352539 99.42384766 24.11352539 100.44384766 24.11352539 C101.43384766 27.08352539 101.43384766 27.08352539 102.44384766 30.11352539 C103.10384766 30.11352539 103.76384766 30.11352539 104.44384766 30.11352539 C104.55341797 30.68458008 104.66298828 31.25563477 104.77587891 31.84399414 C105.51155227 35.60609615 106.25068844 39.35065998 107.19189453 43.06787109 C109.15188025 50.81677973 109.96860896 58.13640214 110.13134766 66.11352539 C110.1804126 67.87925903 110.1804126 67.87925903 110.23046875 69.68066406 C110.319594 73.15819938 110.38677749 76.63532993 110.44384766 80.11352539 C110.46874268 81.49918701 110.46874268 81.49918701 110.49414062 82.9128418 C110.74208814 98.98657511 110.05285516 115.05419185 109.44384766 131.11352539 C108.78384766 131.11352539 108.12384766 131.11352539 107.44384766 131.11352539 C107.60884766 132.18602539 107.77384766 133.25852539 107.94384766 134.36352539 C108.01469618 140.94062965 103.37210154 146.18348789 99.44384766 151.11352539 C98.78384766 151.44352539 98.12384766 151.77352539 97.44384766 152.11352539 C97.44384766 153.10352539 97.44384766 154.09352539 97.44384766 155.11352539 C96.66009766 155.36102539 95.87634766 155.60852539 95.06884766 155.86352539 C92.00744952 157.32133403 91.85678247 158.19346012 90.44384766 161.11352539 C89.85603516 161.26047852 89.26822266 161.40743164 88.66259766 161.55883789 C86.00427731 162.22341798 84.28411458 163.40879447 82.00634766 164.92602539 C76.16912935 168.5470203 70.0442372 170.3548009 63.44384766 172.11352539 C63.44384766 172.77352539 63.44384766 173.43352539 63.44384766 174.11352539 C51.92220757 176.5941632 51.92220757 176.5941632 46.44384766 175.11352539 C46.44384766 174.78352539 46.44384766 174.45352539 46.44384766 174.11352539 C41.82384766 174.11352539 37.20384766 174.11352539 32.44384766 174.11352539 C32.44384766 174.44352539 32.44384766 174.77352539 32.44384766 175.11352539 C27.74845418 175.28236659 23.05287261 175.4427831 18.35693359 175.59570312 C16.76245556 175.64877711 15.16804983 175.70407494 13.57373047 175.76171875 C11.27017811 175.84460627 8.96647653 175.91925324 6.66259766 175.99243164 C5.60897034 176.03298424 5.60897034 176.03298424 4.53405762 176.07435608 C-0.27104431 176.21634182 -4.7976394 175.80630889 -9.55615234 175.11352539 C-9.55615234 174.45352539 -9.55615234 173.79352539 -9.55615234 173.11352539 C-10.57193359 172.90598633 -11.58771484 172.69844727 -12.63427734 172.48461914 C-24.81148797 169.82642316 -34.28184971 165.05879524 -44.03271484 157.17993164 C-45.51929757 155.92237128 -45.51929757 155.92237128 -47.55615234 156.11352539 C-47.55615234 155.45352539 -47.55615234 154.79352539 -47.55615234 154.11352539 C-48.21615234 154.11352539 -48.87615234 154.11352539 -49.55615234 154.11352539 C-49.63865234 153.53602539 -49.72115234 152.95852539 -49.80615234 152.36352539 C-50.75881545 149.50553609 -52.41668309 148.18397951 -54.55615234 146.11352539 C-54.55615234 145.45352539 -54.55615234 144.79352539 -54.55615234 144.11352539 C-55.21615234 144.11352539 -55.87615234 144.11352539 -56.55615234 144.11352539 C-56.88615234 141.47352539 -57.21615234 138.83352539 -57.55615234 136.11352539 C-58.21615234 136.11352539 -58.87615234 136.11352539 -59.55615234 136.11352539 C-61.80204767 125.67729365 -61.71502558 114.99169729 -61.72412109 104.36352539 C-61.72734641 102.97452767 -61.73071136 101.58553027 -61.73420715 100.1965332 C-61.74014514 97.30557468 -61.74205243 94.41464582 -61.74145508 91.52368164 C-61.74135336 87.852724 -61.75504017 84.18195931 -61.77222729 80.51104736 C-61.78343881 77.64883581 -61.78537156 74.78666973 -61.78484535 71.92443848 C-61.78656901 69.92397623 -61.79734126 67.92352815 -61.80839539 65.9230957 C-61.75633905 44.91380545 -61.75633905 44.91380545 -56.55615234 37.11352539 C-56.49427734 36.08227539 -56.43240234 35.05102539 -56.36865234 33.98852539 C-55.24082421 28.60965274 -52.38015637 25.00086696 -48.55615234 21.11352539 C-47.23493441 20.42315926 -45.90354061 19.75130832 -44.55615234 19.11352539 C-44.22615234 18.43290039 -43.89615234 17.75227539 -43.55615234 17.05102539 C-43.22615234 16.41165039 -42.89615234 15.77227539 -42.55615234 15.11352539 C-41.22317137 14.77878577 -39.88975668 14.44577284 -38.55615234 14.11352539 C-36.81942696 13.18564874 -35.11180544 12.20197631 -33.43115234 11.17602539 C-32.12791016 10.38905273 -32.12791016 10.38905273 -30.79833984 9.58618164 C-28.36046681 7.98500022 -26.86692882 6.73507834 -25.55615234 4.11352539 C-23.73083984 4.14446289 -23.73083984 4.14446289 -21.86865234 4.17602539 C-18.63637912 4.18176655 -15.70680494 3.90118854 -12.55615234 3.11352539 C-12.55615234 2.45352539 -12.55615234 1.79352539 -12.55615234 1.11352539 C-8.31356158 0.30619001 -4.316113 -0.00852987 0 0 Z M-2.55615234 1.11352539 C-2.55615234 1.44352539 -2.55615234 1.77352539 -2.55615234 2.11352539 C14.27384766 2.11352539 31.10384766 2.11352539 48.44384766 2.11352539 C48.44384766 1.78352539 48.44384766 1.45352539 48.44384766 1.11352539 C31.61384766 1.11352539 14.78384766 1.11352539 -2.55615234 1.11352539 Z M-9.55615234 3.11352539 C-7.90615234 3.11352539 -6.25615234 3.11352539 -4.55615234 3.11352539 C-4.22615234 2.45352539 -3.89615234 1.79352539 -3.55615234 1.11352539 C-6.01894035 1.11352539 -7.40839353 1.96805402 -9.55615234 3.11352539 Z M107.44384766 127.11352539 C108.44384766 129.11352539 108.44384766 129.11352539 108.44384766 129.11352539 Z M-59.55615234 131.11352539 C-58.55615234 133.11352539 -58.55615234 133.11352539 -58.55615234 133.11352539 Z M104.44384766 137.11352539 C105.44384766 139.11352539 105.44384766 139.11352539 105.44384766 139.11352539 Z M-56.55615234 138.11352539 C-55.55615234 140.11352539 -55.55615234 140.11352539 -55.55615234 140.11352539 Z M102.44384766 141.11352539 C103.44384766 143.11352539 103.44384766 143.11352539 103.44384766 143.11352539 Z M57.44384766 172.11352539 C57.77384766 172.77352539 58.10384766 173.43352539 58.44384766 174.11352539 C59.10384766 173.45352539 59.76384766 172.79352539 60.44384766 172.11352539 C59.45384766 172.11352539 58.46384766 172.11352539 57.44384766 172.11352539 Z " fill="#FDD232" transform="translate(150.55615234375,94.886474609375)"/>
<path d="M0 0 C1.28087494 0.00007553 2.56174988 0.00015106 3.88143921 0.00022888 C5.26422159 0.00533434 6.64700358 0.01055031 8.02978516 0.01586914 C9.45610504 0.01773622 10.88242558 0.01915875 12.30874634 0.02015686 C16.04711708 0.02395924 19.78544844 0.03376987 23.52380371 0.04486084 C27.34480253 0.05512415 31.16580776 0.05966499 34.98681641 0.06469727 C42.47251136 0.07539436 49.95817397 0.09244316 57.44384766 0.11352539 C57.11384766 0.77352539 56.78384766 1.43352539 56.44384766 2.11352539 C57.71615234 2.31655273 57.71615234 2.31655273 59.01416016 2.52368164 C67.30677236 4.04551267 73.81222476 6.42282877 81.18994141 10.39477539 C83.55209616 11.64249219 85.76478258 12.66698052 88.22900391 13.64477539 C91.44384766 15.11352539 91.44384766 15.11352539 93.44384766 18.11352539 C94.43384766 18.77352539 95.42384766 19.43352539 96.44384766 20.11352539 C97.13134766 22.23852539 97.13134766 22.23852539 97.44384766 24.11352539 C98.43384766 24.11352539 99.42384766 24.11352539 100.44384766 24.11352539 C101.43384766 27.08352539 101.43384766 27.08352539 102.44384766 30.11352539 C103.10384766 30.11352539 103.76384766 30.11352539 104.44384766 30.11352539 C104.55341797 30.68458008 104.66298828 31.25563477 104.77587891 31.84399414 C105.51155227 35.60609615 106.25068844 39.35065998 107.19189453 43.06787109 C109.15188025 50.81677973 109.96860896 58.13640214 110.13134766 66.11352539 C110.1804126 67.87925903 110.1804126 67.87925903 110.23046875 69.68066406 C110.319594 73.15819938 110.38677749 76.63532993 110.44384766 80.11352539 C110.46874268 81.49918701 110.46874268 81.49918701 110.49414062 82.9128418 C110.74208814 98.98657511 110.05285516 115.05419185 109.44384766 131.11352539 C108.78384766 131.11352539 108.12384766 131.11352539 107.44384766 131.11352539 C107.60884766 132.18602539 107.77384766 133.25852539 107.94384766 134.36352539 C108.01469618 140.94062965 103.37210154 146.18348789 99.44384766 151.11352539 C98.78384766 151.44352539 98.12384766 151.77352539 97.44384766 152.11352539 C97.44384766 153.10352539 97.44384766 154.09352539 97.44384766 155.11352539 C96.66009766 155.36102539 95.87634766 155.60852539 95.06884766 155.86352539 C92.00744952 157.32133403 91.85678247 158.19346012 90.44384766 161.11352539 C89.85603516 161.26047852 89.26822266 161.40743164 88.66259766 161.55883789 C86.00427731 162.22341798 84.28411458 163.40879447 82.00634766 164.92602539 C76.16912935 168.5470203 70.0442372 170.3548009 63.44384766 172.11352539 C63.44384766 172.77352539 63.44384766 173.43352539 63.44384766 174.11352539 C51.92220757 176.5941632 51.92220757 176.5941632 46.44384766 175.11352539 C46.44384766 174.78352539 46.44384766 174.45352539 46.44384766 174.11352539 C41.82384766 174.11352539 37.20384766 174.11352539 32.44384766 174.11352539 C32.44384766 174.44352539 32.44384766 174.77352539 32.44384766 175.11352539 C27.74845418 175.28236659 23.05287261 175.4427831 18.35693359 175.59570312 C16.76245556 175.64877711 15.16804983 175.70407494 13.57373047 175.76171875 C11.27017811 175.84460627 8.96647653 175.91925324 6.66259766 175.99243164 C5.60897034 176.03298424 5.60897034 176.03298424 4.53405762 176.07435608 C-0.27104431 176.21634182 -4.7976394 175.80630889 -9.55615234 175.11352539 C-9.55615234 174.45352539 -9.55615234 173.79352539 -9.55615234 173.11352539 C-10.57193359 172.90598633 -11.58771484 172.69844727 -12.63427734 172.48461914 C-24.81148797 169.82642316 -34.28184971 165.05879524 -44.03271484 157.17993164 C-45.51929757 155.92237128 -45.51929757 155.92237128 -47.55615234 156.11352539 C-47.55615234 155.45352539 -47.55615234 154.79352539 -47.55615234 154.11352539 C-48.21615234 154.11352539 -48.87615234 154.11352539 -49.55615234 154.11352539 C-49.63865234 153.53602539 -49.72115234 152.95852539 -49.80615234 152.36352539 C-50.75881545 149.50553609 -52.41668309 148.18397951 -54.55615234 146.11352539 C-54.55615234 145.45352539 -54.55615234 144.79352539 -54.55615234 144.11352539 C-55.21615234 144.11352539 -55.87615234 144.11352539 -56.55615234 144.11352539 C-56.88615234 141.47352539 -57.21615234 138.83352539 -57.55615234 136.11352539 C-58.21615234 136.11352539 -58.87615234 136.11352539 -59.55615234 136.11352539 C-61.80204767 125.67729365 -61.71502558 114.99169729 -61.72412109 104.36352539 C-61.72734641 102.97452767 -61.73071136 101.58553027 -61.73420715 100.1965332 C-61.74014514 97.30557468 -61.74205243 94.41464582 -61.74145508 91.52368164 C-61.74135336 87.852724 -61.75504017 84.18195931 -61.77222729 80.51104736 C-61.78343881 77.64883581 -61.78537156 74.78666973 -61.78484535 71.92443848 C-61.78656901 69.92397623 -61.79734126 67.92352815 -61.80839539 65.9230957 C-61.75633905 44.91380545 -61.75633905 44.91380545 -56.55615234 37.11352539 C-56.49427734 36.08227539 -56.43240234 35.05102539 -56.36865234 33.98852539 C-55.24082421 28.60965274 -52.38015637 25.00086696 -48.55615234 21.11352539 C-47.23493441 20.42315926 -45.90354061 19.75130832 -44.55615234 19.11352539 C-44.22615234 18.43290039 -43.89615234 17.75227539 -43.55615234 17.05102539 C-43.22615234 16.41165039 -42.89615234 15.77227539 -42.55615234 15.11352539 C-41.22317137 14.77878577 -39.88975668 14.44577284 -38.55615234 14.11352539 C-36.81942696 13.18564874 -35.11180544 12.20197631 -33.43115234 11.17602539 C-32.12791016 10.38905273 -32.12791016 10.38905273 -30.79833984 9.58618164 C-28.36046681 7.98500022 -26.86692882 6.73507834 -25.55615234 4.11352539 C-23.73083984 4.14446289 -23.73083984 4.14446289 -21.86865234 4.17602539 C-18.63637912 4.18176655 -15.70680494 3.90118854 -12.55615234 3.11352539 C-12.55615234 2.45352539 -12.55615234 1.79352539 -12.55615234 1.11352539 C-8.31356158 0.30619001 -4.316113 -0.00852987 0 0 Z M-2.55615234 1.11352539 C-2.55615234 1.44352539 -2.55615234 1.77352539 -2.55615234 2.11352539 C14.27384766 2.11352539 31.10384766 2.11352539 48.44384766 2.11352539 C48.44384766 1.78352539 48.44384766 1.45352539 48.44384766 1.11352539 C31.61384766 1.11352539 14.78384766 1.11352539 -2.55615234 1.11352539 Z M-9.55615234 3.11352539 C-7.90615234 3.11352539 -6.25615234 3.11352539 -4.55615234 3.11352539 C-4.22615234 2.45352539 -3.89615234 1.79352539 -3.55615234 1.11352539 C-6.01894035 1.11352539 -7.40839353 1.96805402 -9.55615234 3.11352539 Z M-11.55615234 7.11352539 C-12.83490234 7.17540039 -14.11365234 7.23727539 -15.43115234 7.30102539 C-20.84857405 7.83402978 -25.02021611 10.0970862 -29.76708984 12.64477539 C-32.55615234 14.11352539 -32.55615234 14.11352539 -36.30615234 15.48852539 C-45.88926404 20.28008124 -52.00116758 30.28153824 -55.55615234 40.11352539 C-56.10809607 42.14700228 -56.62818596 44.18935169 -57.11865234 46.23852539 C-57.84380286 49.25184514 -58.57578047 52.17240978 -59.55615234 55.11352539 C-59.66024001 57.13996662 -59.70475653 59.16965646 -59.71728516 61.19873047 C-59.7268927 62.45466507 -59.73650024 63.71059967 -59.74639893 65.0045929 C-59.75125159 66.38074562 -59.75552926 67.75690047 -59.75927734 69.13305664 C-59.76210472 69.82994787 -59.7649321 70.5268391 -59.76784515 71.24484825 C-59.78284517 74.94383498 -59.79206526 78.64278274 -59.79638672 82.34179688 C-59.8018257 86.12611863 -59.82575271 89.91007219 -59.85435867 93.69427967 C-59.8731964 96.63293915 -59.87820205 99.57151442 -59.8797226 102.51022911 C-59.88271006 103.90259467 -59.89060263 105.2949602 -59.90390778 106.6872654 C-59.98908271 116.29850356 -58.93687644 124.81437829 -56.55615234 134.11352539 C-55.89615234 134.11352539 -55.23615234 134.11352539 -54.55615234 134.11352539 C-54.43240234 134.69102539 -54.30865234 135.26852539 -54.18115234 135.86352539 C-53.5496641 138.13688306 -52.66757044 140.03887829 -51.55615234 142.11352539 C-50.89615234 142.11352539 -50.23615234 142.11352539 -49.55615234 142.11352539 C-49.43240234 143.44383789 -49.43240234 143.44383789 -49.30615234 144.80102539 C-47.67942563 151.98573506 -40.93572021 157.41009275 -35.05615234 161.48852539 C-22.4898879 169.1981573 -10.59910884 170.43029103 3.91650391 170.41430664 C5.40848405 170.41820636 6.90046311 170.42254358 8.3924408 170.42729187 C11.50979212 170.4347156 14.62703016 170.43449277 17.74438477 170.42919922 C21.68853647 170.42343617 25.63221372 170.44027727 29.57628727 170.46354389 C32.65747166 170.47847179 35.73854711 170.47912704 38.81976128 170.47603416 C40.27104054 170.47653876 41.72232738 170.48160912 43.17357063 170.49184608 C51.10737632 170.5409182 58.76203271 170.11148546 66.59399414 168.77832031 C67.63985357 168.60387249 67.63985357 168.60387249 68.70684147 168.42590046 C73.03932901 167.6151824 76.59866185 166.25257147 80.44384766 164.11352539 C80.44384766 163.45352539 80.44384766 162.79352539 80.44384766 162.11352539 C81.10384766 162.11352539 81.76384766 162.11352539 82.44384766 162.11352539 C82.91822266 161.63915039 83.39259766 161.16477539 83.88134766 160.67602539 C85.44384766 159.11352539 85.44384766 159.11352539 88.44384766 158.11352539 C91.43555639 155.50536906 93.66016718 152.94023874 95.56884766 149.48852539 C97.44384766 146.11352539 97.44384766 146.11352539 98.93212891 144.73461914 C107.82291567 135.20057132 106.75369029 115.00955066 106.74462891 102.92993164 C106.75105659 100.98207008 106.75105659 100.98207008 106.75761414 98.99485779 C106.7649966 96.26964178 106.76484351 93.54455551 106.75952148 90.81933594 C106.75488199 88.05875391 106.76184864 85.29861151 106.7800293 82.53808594 C107.77783926 52.8795482 107.77783926 52.8795482 96.19384766 26.36352539 C94.83259766 25.24977539 94.83259766 25.24977539 93.44384766 24.11352539 C92.80705078 23.5012207 92.17025391 22.88891602 91.51416016 22.25805664 C83.29517371 14.46318159 74.86004239 10.00642016 63.77978516 7.65649414 C61.44384766 7.11352539 61.44384766 7.11352539 60.44384766 6.11352539 C58.27651505 6.01396345 56.10589706 5.98552821 53.9362793 5.98413086 C52.91675423 5.98150238 52.91675423 5.98150238 51.87663269 5.9788208 C49.61906415 5.97440236 47.36157331 5.97734055 45.10400391 5.98071289 C43.54080693 5.98003977 41.97761006 5.97906968 40.41441345 5.97781372 C37.1332805 5.9763367 33.85217472 5.97849116 30.57104492 5.9831543 C26.35964064 5.98884689 22.14830016 5.9855756 17.93689823 5.97958183 C14.70706195 5.97597233 11.47724084 5.97711668 8.2474041 5.97970963 C6.69442169 5.98037806 5.14143792 5.97955337 3.58845711 5.97723007 C1.41920435 5.97469771 -0.74994446 5.97855262 -2.91918945 5.98413086 C-4.15527451 5.98492645 -5.39135956 5.98572205 -6.66490173 5.98654175 C-9.49705373 5.91416879 -9.49705373 5.91416879 -11.55615234 7.11352539 Z M107.44384766 127.11352539 C108.44384766 129.11352539 108.44384766 129.11352539 108.44384766 129.11352539 Z M-59.55615234 131.11352539 C-58.55615234 133.11352539 -58.55615234 133.11352539 -58.55615234 133.11352539 Z M104.44384766 137.11352539 C105.44384766 139.11352539 105.44384766 139.11352539 105.44384766 139.11352539 Z M-56.55615234 138.11352539 C-55.55615234 140.11352539 -55.55615234 140.11352539 -55.55615234 140.11352539 Z M102.44384766 141.11352539 C103.44384766 143.11352539 103.44384766 143.11352539 103.44384766 143.11352539 Z M57.44384766 172.11352539 C57.77384766 172.77352539 58.10384766 173.43352539 58.44384766 174.11352539 C59.10384766 173.45352539 59.76384766 172.79352539 60.44384766 172.11352539 C59.45384766 172.11352539 58.46384766 172.11352539 57.44384766 172.11352539 Z " fill="#F2D052" transform="translate(150.55615234375,94.886474609375)"/>
<path d="M0 0 C3.45982646 1.54819966 5.18338812 3.34340378 7.54223633 6.31591797 C9.10114216 8.11684452 10.75643125 9.59441394 12.57421875 11.1328125 C17.40932905 15.31290386 22.00347486 19.70968826 26.5625 24.1875 C27.39330078 24.98091797 28.22410156 25.77433594 29.08007812 26.59179688 C30.24893555 27.74325195 30.24893555 27.74325195 31.44140625 28.91796875 C32.14982666 29.60656982 32.85824707 30.2951709 33.58813477 31.00463867 C35 33 35 33 34.85864258 35.09399414 C33.5236263 38.05744938 31.42057964 39.97438192 29.125 42.25 C28.24070313 43.14203125 27.35640625 44.0340625 26.4453125 44.953125 C24 47 24 47 21 47 C17.20850869 43.6297855 14.01054876 39.74231424 10.74609375 35.8671875 C9.03191411 33.91740995 9.03191411 33.91740995 6.78515625 32.3828125 C5.90150391 31.69832031 5.90150391 31.69832031 5 31 C5 30.34 5 29.68 5 29 C2.22632544 28.13140304 2.22632544 28.13140304 -1 28 C-3.49142767 29.60870398 -3.49142767 29.60870398 -5.6015625 32.09375 C-6.42140625 32.95871094 -7.24125 33.82367188 -8.0859375 34.71484375 C-8.92382812 35.63394531 -9.76171875 36.55304688 -10.625 37.5 C-12.2929869 39.31291868 -13.97217057 41.1156199 -15.6640625 42.90625 C-16.40092285 43.71384766 -17.1377832 44.52144531 -17.89697266 45.35351562 C-20 47 -20 47 -22.10986328 46.89868164 C-25.07297274 45.48984595 -26.98884764 43.28790837 -29.25 40.9375 C-30.14203125 40.01839844 -31.0340625 39.09929687 -31.953125 38.15234375 C-32.62859375 37.44207031 -33.3040625 36.73179687 -34 36 C-32.65427113 33.00056095 -31.16462899 30.91923821 -28.83544922 28.60839844 C-27.87467972 27.64785553 -27.87467972 27.64785553 -26.89450073 26.66790771 C-26.20486237 25.98859192 -25.515224 25.30927612 -24.8046875 24.609375 C-24.09724396 23.90476135 -23.38980042 23.20014771 -22.66091919 22.47418213 C-20.40360138 20.2280461 -18.13942367 17.98896991 -15.875 15.75 C-14.34199047 14.22702283 -12.80943285 12.70359061 -11.27734375 11.1796875 C-7.52345427 7.44783185 -3.76391086 3.72174649 0 0 Z " fill="#1E2122" transform="translate(174,129)"/>
<path d="M0 0 C3.37663124 1.57806542 5.24333967 3.17198272 7.625 6.0625 C9.95485552 8.97875712 9.95485552 8.97875712 13 11 C12.53006077 15.22945308 9.95066672 17.25282754 7 20 C3.13419689 23.77035118 -0.67370865 27.52964507 -4.125 31.6875 C-5.98773592 33.91675808 -7.66527 35.55203256 -9.9375 37.4375 C-13.73554595 40.61545681 -16.82484821 44.2142421 -20 48 C-22.99943905 46.65427113 -25.08076179 45.16462899 -27.39160156 42.83544922 C-28.0319635 42.19493622 -28.67232544 41.55442322 -29.33209229 40.89450073 C-30.01140808 40.20486237 -30.69072388 39.515224 -31.390625 38.8046875 C-32.09523865 38.09724396 -32.79985229 37.38980042 -33.52581787 36.66091919 C-35.7719539 34.40360138 -38.01103009 32.13942367 -40.25 29.875 C-41.77297717 28.34199047 -43.29640939 26.80943285 -44.8203125 25.27734375 C-48.55216815 21.52345427 -52.27825351 17.76391086 -56 14 C-54.32867581 10.45976353 -52.36660667 8.00652746 -49.625 5.1875 C-48.85414063 4.37667969 -48.08328125 3.56585938 -47.2890625 2.73046875 C-45 1 -45 1 -43.07421875 0.8828125 C-39.91018879 2.5869793 -37.6309901 5.10526283 -35.1875 7.6875 C-34.12561871 8.78181505 -33.06182736 9.87428005 -31.99609375 10.96484375 C-31.4841748 11.48933105 -30.97225586 12.01381836 -30.44482422 12.55419922 C-27.77794242 15.22288357 -24.91767492 17.61281143 -22 20 C-18.53370165 18.51346494 -16.30977964 16.54277649 -13.671875 13.8671875 C-12.47304687 12.65869141 -12.47304687 12.65869141 -11.25 11.42578125 C-10.425 10.58402344 -9.6 9.74226562 -8.75 8.875 C-7.48929688 7.60076172 -7.48929688 7.60076172 -6.203125 6.30078125 C-4.13084317 4.20495077 -2.06337607 2.10459287 0 0 Z " fill="#1F2224" transform="translate(196,195)"/>
<path d="M0 0 C2.64 0.33 5.28 0.66 8 1 C8 1.66 8 2.32 8 3 C9.32 3.66 10.64 4.32 12 5 C12 5.66 12 6.32 12 7 C12.639375 7.268125 13.27875 7.53625 13.9375 7.8125 C16 9 16 9 17 12 C17.99 12.33 18.98 12.66 20 13 C20 13.66 20 14.32 20 15 C21.32 15.33 22.64 15.66 24 16 C24 16.66 24 17.32 24 18 C24.78375 17.505 25.5675 17.01 26.375 16.5 C29 15 29 15 31 15 C31 14.34 31 13.68 31 13 C32.61838719 11.28641357 34.29671681 9.6292274 36 8 C37.0625509 6.89588232 38.12505115 5.79171588 39.1875 4.6875 C42 2 42 2 44 2 C44 1.34 44 0.68 44 0 C47.25 -0.3125 47.25 -0.3125 51 0 C53.4375 2.5 53.4375 2.5 55 5 C54.34 5.66 53.68 6.32 53 7 C51.68 5.35 50.36 3.7 49 2 C45.53370165 3.48653506 43.30977964 5.45722351 40.671875 8.1328125 C39.47304687 9.34130859 39.47304687 9.34130859 38.25 10.57421875 C37.425 11.41597656 36.6 12.25773438 35.75 13.125 C34.90953125 13.97449219 34.0690625 14.82398438 33.203125 15.69921875 C31.13084317 17.79504923 29.06337607 19.89540713 27 22 C22.5457197 20.36687196 20.24253443 18.50410875 17 15 C14.99103139 12.86348854 12.96607285 10.74288109 10.9375 8.625 C10.42123047 8.06683594 9.90496094 7.50867188 9.37304688 6.93359375 C6.64649806 3.94754225 6.64649806 3.94754225 2.92578125 2.86328125 C0.28044676 4.42472615 -1.62703638 6.34587622 -3.75 8.5625 C-4.54921875 9.38878906 -5.3484375 10.21507812 -6.171875 11.06640625 C-7.07679688 12.02353516 -7.07679688 12.02353516 -8 13 C-6.67005617 15.95265112 -5.22220684 18.02350216 -2.92724609 20.29980469 C-2.30675385 20.92014587 -1.6862616 21.54048706 -1.04696655 22.17962646 C-0.37920197 22.83706848 0.28856262 23.4945105 0.9765625 24.171875 C1.66181 24.8542926 2.3470575 25.53671021 3.05307007 26.23980713 C5.23905845 28.41461598 7.43190429 30.58236072 9.625 32.75 C11.10983255 34.2247999 12.59421306 35.70005506 14.078125 37.17578125 C17.7135291 40.78915448 21.35509824 44.39620853 25 48 C28.39540434 46.86819855 29.15357852 45.89642801 31.375 43.1875 C34.04504792 40.03148102 36.77068542 37.58345167 40 35 C41.76785612 33.06560671 43.46711617 31.07996438 45.171875 29.08984375 C49.38984717 24.26801659 53.88814695 19.87261595 59 16 C57.25 20.875 57.25 20.875 55 22 C55 22.99 55 23.98 55 25 C53.13574219 27.26831055 53.13574219 27.26831055 50.546875 29.88671875 C50.09024475 30.34859085 49.6336145 30.81046295 49.16314697 31.28633118 C48.19507325 32.26082835 47.22309616 33.23146103 46.24755859 34.19848633 C44.75723635 35.68030494 43.28649863 37.17978243 41.81640625 38.68164062 C40.87352777 39.62613136 39.92955234 40.56952855 38.984375 41.51171875 C38.12553711 42.37240967 37.26669922 43.23310059 36.38183594 44.11987305 C34 46 34 46 30 46 C29.34 47.32 28.68 48.64 28 50 C25.03 49.505 25.03 49.505 22 49 C22 48.34 22 47.68 22 47 C21.01 47 20.02 47 19 47 C17.52734375 45.6015625 17.52734375 45.6015625 15.9375 43.625 C10.47262452 37.10874256 4.5411581 30.99470966 -2.0625 25.625 C-5.10638678 22.90493096 -5.16465606 22.59051343 -6 19 C-7.9837767 17.71563266 -7.9837767 17.71563266 -10 17 C-10.125 13.625 -10.125 13.625 -10 10 C-9.34 9.34 -8.68 8.68 -8 8 C-7.01 8 -6.02 8 -5 8 C-4.9175 7.38125 -4.835 6.7625 -4.75 6.125 C-4 4 -4 4 -1.9375 2.75 C-1.298125 2.5025 -0.65875 2.255 0 2 C0 1.34 0 0.68 0 0 Z " fill="#EFD256" transform="translate(149,194)"/>
<path d="M0 0 C1.28087494 0.00007553 2.56174988 0.00015106 3.88143921 0.00022888 C5.26422159 0.00533434 6.64700358 0.01055031 8.02978516 0.01586914 C9.45610504 0.01773622 10.88242558 0.01915875 12.30874634 0.02015686 C16.04711708 0.02395924 19.78544844 0.03376987 23.52380371 0.04486084 C27.34480253 0.05512415 31.16580776 0.05966499 34.98681641 0.06469727 C42.47251136 0.07539436 49.95817397 0.09244316 57.44384766 0.11352539 C57.44384766 0.44352539 57.44384766 0.77352539 57.44384766 1.11352539 C36.65384766 1.44352539 15.86384766 1.77352539 -5.55615234 2.11352539 C-3.82972855 3.83994918 -1.51088638 3.25627109 0.84301758 3.27124023 C1.99899948 3.28150238 3.15498138 3.29176453 4.34599304 3.30233765 C5.60933975 3.30963898 6.87268646 3.31694031 8.17431641 3.32446289 C10.15731062 3.34535475 12.1403048 3.36626449 14.12328815 3.38816261 C19.01807479 3.44118266 23.91287719 3.48517031 28.80786133 3.51489258 C31.54484134 3.53195761 34.28155173 3.55682558 37.01838684 3.5897522 C39.59061199 3.62035285 42.16299906 3.64005575 44.73539734 3.64682007 C63.07065781 3.90058836 79.38328986 8.38813602 92.76416016 21.36352539 C93.31845703 21.94102539 93.87275391 22.51852539 94.44384766 23.11352539 C94.11384766 23.77352539 93.78384766 24.43352539 93.44384766 25.11352539 C92.92177734 24.60563477 92.39970703 24.09774414 91.86181641 23.57446289 C83.42389974 15.6833114 75.10751331 11.05890435 63.77978516 8.65649414 C61.44384766 8.11352539 61.44384766 8.11352539 60.44384766 7.11352539 C58.27651505 7.01396345 56.10589706 6.98552821 53.9362793 6.98413086 C52.91675423 6.98150238 52.91675423 6.98150238 51.87663269 6.9788208 C49.61906415 6.97440236 47.36157331 6.97734055 45.10400391 6.98071289 C43.54080693 6.98003977 41.97761006 6.97906968 40.41441345 6.97781372 C37.1332805 6.9763367 33.85217472 6.97849116 30.57104492 6.9831543 C26.35964064 6.98884689 22.14830016 6.9855756 17.93689823 6.97958183 C14.70706195 6.97597233 11.47724084 6.97711668 8.2474041 6.97970963 C6.69442169 6.98037806 5.14143792 6.97955337 3.58845711 6.97723007 C1.41920435 6.97469771 -0.74994446 6.97855262 -2.91918945 6.98413086 C-4.77331703 6.98532425 -4.77331703 6.98532425 -6.66490173 6.98654175 C-9.49705373 6.91416879 -9.49705373 6.91416879 -11.55615234 8.11352539 C-12.83490234 8.17540039 -14.11365234 8.23727539 -15.43115234 8.30102539 C-20.97193554 8.81456139 -25.24392019 11.26868662 -30.05224609 13.93383789 C-30.87853516 14.32313477 -31.70482422 14.71243164 -32.55615234 15.11352539 C-33.21615234 14.78352539 -33.87615234 14.45352539 -34.55615234 14.11352539 C-34.00185547 13.77579102 -33.44755859 13.43805664 -32.87646484 13.09008789 C-32.15201172 12.64407227 -31.42755859 12.19805664 -30.68115234 11.73852539 C-29.96185547 11.29766602 -29.24255859 10.85680664 -28.50146484 10.40258789 C-26.43821652 9.12815409 -26.43821652 9.12815409 -24.55615234 7.11352539 C-25.21615234 6.45352539 -25.87615234 5.79352539 -26.55615234 5.11352539 C-21.92884523 4.06864959 -17.26761356 3.5959626 -12.55615234 3.11352539 C-12.55615234 2.45352539 -12.55615234 1.79352539 -12.55615234 1.11352539 C-8.31356158 0.30619001 -4.316113 -0.00852987 0 0 Z " fill="#F3D047" transform="translate(150.55615234375,94.886474609375)"/>
<path d="M0 0 C3.85593074 1.58561638 6.33216291 4.06509954 9.25 7 C10.14203125 7.886875 11.0340625 8.77375 11.953125 9.6875 C14 12 14 12 14 14 C13.29875 14.556875 12.5975 15.11375 11.875 15.6875 C8.43672242 18.45307109 5.78272367 21.59570576 3 25 C-1.28553996 24.52042767 -3.76931405 21.7812778 -6.75 18.9375 C-7.25660156 18.46505859 -7.76320312 17.99261719 -8.28515625 17.50585938 C-9.52949613 16.34369289 -10.76558064 15.17269839 -12 14 C-10.41332422 10.09714233 -7.86649519 7.66479018 -4.875 4.75 C-3.96492187 3.85796875 -3.05484375 2.9659375 -2.1171875 2.046875 C-1.41851562 1.37140625 -0.71984375 0.6959375 0 0 Z " fill="#1C1E17" transform="translate(218,173)"/>
<path d="M0 0 C3.77070649 1.6672132 5.0709374 3.33478106 7 7 C5.96875 6.566875 4.9375 6.13375 3.875 5.6875 C-0.09375 4.53125 -0.09375 4.53125 -3.3125 7.125 C-5.59130017 9.56278623 -6.60188434 11.11056096 -8 14 C-10.67638824 16.40188688 -12.5765618 17.85885393 -16 19 C-17.20882096 21.00016466 -17.20882096 21.00016466 -18 23 C-21.12900789 23.0468014 -23.99182335 22.9034975 -27 22 C-28.44923276 20.32216803 -29.20601301 18.72427338 -30.1015625 16.703125 C-31.42602471 14.19240534 -33.59330791 13.39334805 -36 12 C-37.3125 9.3125 -37.3125 9.3125 -38 7 C-43.55493924 5.97296252 -43.55493924 5.97296252 -49 7 C-49.64890401 9.87194359 -50.1208592 12.09741926 -50 15 C-48.3512326 17.5391632 -47.06623298 19.15639045 -44.9375 21.1875 C-44.45861328 21.68185547 -43.97972656 22.17621094 -43.48632812 22.68554688 C-41.05407174 25.15687565 -38.51528349 27.43412429 -35.83203125 29.62890625 C-33.50622791 31.57616505 -31.64020243 33.40282556 -29.75 35.75 C-27.71750786 38.29055824 -27.71750786 38.29055824 -25 40 C-25 40.66 -25 41.32 -25 42 C-22.03 42 -19.06 42 -16 42 C-17.32 43.98 -18.64 45.96 -20 48 C-22.99943905 46.65427113 -25.08076179 45.16462899 -27.39160156 42.83544922 C-28.0319635 42.19493622 -28.67232544 41.55442322 -29.33209229 40.89450073 C-30.01140808 40.20486237 -30.69072388 39.515224 -31.390625 38.8046875 C-32.09523865 38.09724396 -32.79985229 37.38980042 -33.52581787 36.66091919 C-35.7719539 34.40360138 -38.01103009 32.13942367 -40.25 29.875 C-41.77297717 28.34199047 -43.29640939 26.80943285 -44.8203125 25.27734375 C-48.55216815 21.52345427 -52.27825351 17.76391086 -56 14 C-54.32867581 10.45976353 -52.36660667 8.00652746 -49.625 5.1875 C-48.85414063 4.37667969 -48.08328125 3.56585938 -47.2890625 2.73046875 C-45 1 -45 1 -43.07421875 0.8828125 C-39.91018879 2.5869793 -37.6309901 5.10526283 -35.1875 7.6875 C-34.12561871 8.78181505 -33.06182736 9.87428005 -31.99609375 10.96484375 C-31.4841748 11.48933105 -30.97225586 12.01381836 -30.44482422 12.55419922 C-27.77794242 15.22288357 -24.91767492 17.61281143 -22 20 C-18.53370165 18.51346494 -16.30977964 16.54277649 -13.671875 13.8671875 C-12.47304687 12.65869141 -12.47304687 12.65869141 -11.25 11.42578125 C-10.425 10.58402344 -9.6 9.74226562 -8.75 8.875 C-7.48929688 7.60076172 -7.48929688 7.60076172 -6.203125 6.30078125 C-4.13084317 4.20495077 -2.06337607 2.10459287 0 0 Z " fill="#2D2109" transform="translate(196,195)"/>
<path d="M0 0 C1.78125 1.64453125 1.78125 1.64453125 3.5 3.8125 C5.79612182 6.67743381 7.97864666 8.89962937 11 11 C9.45049295 14.78671666 7.11710363 17.06455913 4.125 19.8125 C3.26132813 20.62332031 2.39765625 21.43414062 1.5078125 22.26953125 C-1 24 -1 24 -2.9921875 24.078125 C-5.93494321 22.49796824 -7.94050681 20.3381574 -10.25 17.9375 C-11.14203125 17.01839844 -12.0340625 16.09929687 -12.953125 15.15234375 C-13.62859375 14.44207031 -14.3040625 13.73179687 -15 13 C-13.47246728 9.4193319 -11.34422227 7.01439208 -8.625 4.25 C-7.85414063 3.45078125 -7.08328125 2.6515625 -6.2890625 1.828125 C-4 0 -4 0 0 0 Z " fill="#1B1E1B" transform="translate(177,174)"/>
<path d="M0 0 C2.53559116 1.30301212 4.14397305 2.93591059 6.09375 5.01171875 C8.73935724 7.90457463 8.73935724 7.90457463 11.96875 10.01171875 C11.96875 14.01171875 11.96875 14.01171875 10.32421875 15.828125 C9.60878906 16.40433594 8.89335937 16.98054688 8.15625 17.57421875 C5.14008362 20.01018677 5.14008362 20.01018677 2.45703125 22.7890625 C0.96875 24.01171875 0.96875 24.01171875 -0.890625 24.015625 C-3.98678192 22.5635952 -5.91928374 20.40442052 -8.28125 17.94921875 C-9.17328125 17.03011719 -10.0653125 16.11101562 -10.984375 15.1640625 C-11.65984375 14.45378906 -12.3353125 13.74351562 -13.03125 13.01171875 C-11.49876951 9.4276918 -9.3637899 6.98321741 -6.65625 4.19921875 C-5.88539062 3.38839844 -5.11453125 2.57757813 -4.3203125 1.7421875 C-2.03125 0.01171875 -2.03125 0.01171875 0 0 Z " fill="#191D1A" transform="translate(131.03125,173.98828125)"/>
<path d="M0 0 C-0.68964844 0.35191406 -1.37929687 0.70382813 -2.08984375 1.06640625 C-15.92606844 8.33564364 -26.46829889 17.04472902 -32 32 C-32.55194373 34.03347689 -33.07203361 36.0758263 -33.5625 38.125 C-34.28765051 41.13831975 -35.01962813 44.05888439 -36 47 C-36.104056 49.01585315 -36.14860113 51.03496871 -36.16113281 53.0534668 C-36.17074036 54.30294601 -36.1803479 55.55242523 -36.19024658 56.83976746 C-36.19510034 58.20958268 -36.19937774 59.57940005 -36.203125 60.94921875 C-36.20595238 61.64361368 -36.20877975 62.33800861 -36.21169281 63.05344582 C-36.22669719 66.74177048 -36.23591356 70.43005604 -36.24023438 74.1184082 C-36.24566319 77.88459831 -36.26956655 81.65041655 -36.29820633 85.41649151 C-36.31708712 88.34665358 -36.32205199 91.27673155 -36.32357025 94.20694923 C-36.32655 95.59207971 -36.33441456 96.97721046 -36.34775543 98.36227989 C-36.43918231 108.60119754 -35.1763149 118.04562053 -33 128 C-34.32 128 -35.64 128 -37 128 C-39.24589533 117.56376826 -39.15887323 106.8781719 -39.16796875 96.25 C-39.17119407 94.86100228 -39.17455902 93.47200488 -39.17805481 92.08300781 C-39.18399279 89.19204929 -39.18590009 86.30112043 -39.18530273 83.41015625 C-39.18520101 79.73919861 -39.19888782 76.06843392 -39.21607494 72.39752197 C-39.22728646 69.53531042 -39.22921921 66.67314433 -39.22869301 63.81091309 C-39.23041666 61.81045084 -39.24118892 59.81000276 -39.25224304 57.80957031 C-39.2001867 36.80028006 -39.2001867 36.80028006 -34 29 C-33.938125 27.96875 -33.87625 26.9375 -33.8125 25.875 C-32.68467186 20.49612735 -29.82400402 16.88734156 -26 13 C-24.67878207 12.30963387 -23.34738827 11.63778293 -22 11 C-21.67 10.319375 -21.34 9.63875 -21 8.9375 C-20.67 8.298125 -20.34 7.65875 -20 7 C-19.42507812 6.85691406 -18.85015625 6.71382813 -18.2578125 6.56640625 C-15.42026889 5.85456573 -13.35634915 4.54065857 -10.875 3 C-4.0472339 -1.21417017 -4.0472339 -1.21417017 0 0 Z M-37 123 C-36 125 -36 125 -36 125 Z " fill="#F1D96F" transform="translate(128,103)"/>
<path d="M0 0 C7.21835361 -0.07706116 14.4365984 -0.1290164 21.65527344 -0.16479492 C24.1029049 -0.17973518 26.5505103 -0.20009475 28.99804688 -0.22631836 C50.20294062 -0.44756418 70.95196941 -0.63362141 89 12 C90.33106622 12.34227417 91.66400079 12.67751743 93 13 C94.5 14.375 94.5 14.375 96 16 C96.70125 16.474375 97.4025 16.94875 98.125 17.4375 C100.28097201 19.23414335 100.62351583 20.27048977 101 23 C101.99 23 102.98 23 104 23 C104.99 25.97 104.99 25.97 106 29 C106.66 29 107.32 29 108 29 C108.13277344 29.68707031 108.26554687 30.37414062 108.40234375 31.08203125 C108.66724609 32.43361328 108.66724609 32.43361328 108.9375 33.8125 C109.11152344 34.70582031 109.28554688 35.59914062 109.46484375 36.51953125 C109.97741153 39.11397171 109.97741153 39.11397171 111 42 C111.06740865 43.56118428 111.08514456 45.1250252 111.0625 46.6875 C111.05347656 47.49574219 111.04445313 48.30398437 111.03515625 49.13671875 C111.02355469 49.75160156 111.01195312 50.36648437 111 51 C108.92837853 47.89256779 108.40310655 45.85675273 107.625 42.25 C105.91872637 35.15910406 104.00392198 30.40287612 98 26 C97.5978125 24.8553125 97.5978125 24.8553125 97.1875 23.6875 C93.90652442 16.26213422 84.47373868 11.5571932 77.375 8.375 C66.60875826 4.67991528 55.82316447 3.54658318 44.5078125 3.48828125 C43.19585907 3.47033005 41.88390564 3.45237885 40.53219604 3.43388367 C37.0965051 3.38702943 33.66087666 3.35680778 30.22497559 3.33044434 C26.69803503 3.30030655 23.17130916 3.25389357 19.64453125 3.20898438 C12.76314457 3.12368969 5.88168577 3.05602256 -1 3 C-0.67 2.01 -0.34 1.02 0 0 Z " fill="#F4DC7C" transform="translate(147,96)"/>
<path d="M0 0 C1.28087494 0.00007553 2.56174988 0.00015106 3.88143921 0.00022888 C5.26422159 0.00533434 6.64700358 0.01055031 8.02978516 0.01586914 C9.45610504 0.01773622 10.88242558 0.01915875 12.30874634 0.02015686 C16.04711708 0.02395924 19.78544844 0.03376987 23.52380371 0.04486084 C27.34480253 0.05512415 31.16580776 0.05966499 34.98681641 0.06469727 C42.47251136 0.07539436 49.95817397 0.09244316 57.44384766 0.11352539 C57.44384766 0.44352539 57.44384766 0.77352539 57.44384766 1.11352539 C36.65384766 1.44352539 15.86384766 1.77352539 -5.55615234 2.11352539 C-3.80081276 3.86886498 -1.32001406 3.28399088 1.06518555 3.31884766 C2.26635513 3.33879288 3.46752472 3.3587381 4.70509338 3.37928772 C6.01235886 3.39600021 7.31962433 3.41271271 8.66650391 3.42993164 C10.01029612 3.45049497 11.35408178 3.47149127 12.69786072 3.49290466 C16.24059753 3.54818958 19.78339332 3.59757037 23.32623291 3.64575195 C26.93905915 3.69592026 30.55179937 3.75163064 34.16455078 3.80688477 C41.25757512 3.91454476 48.35067654 4.01597219 55.44384766 4.11352539 C55.44384766 4.44352539 55.44384766 4.77352539 55.44384766 5.11352539 C54.19596214 5.12898659 54.19596214 5.12898659 52.92286682 5.14476013 C45.05246929 5.24305914 37.18214096 5.34561715 29.31186008 5.45286465 C25.26644477 5.5078434 21.22102199 5.56122086 17.17553711 5.61083984 C13.26567283 5.65885597 9.3558877 5.71120763 5.44611931 5.76646614 C3.96034677 5.78672236 2.47455269 5.80546104 0.98874092 5.82259941 C-6.58065137 5.91088179 -14.04576649 6.0875563 -21.55615234 7.11352539 C-21.55615234 6.45352539 -21.55615234 5.79352539 -21.55615234 5.11352539 C-18.58615234 4.45352539 -15.61615234 3.79352539 -12.55615234 3.11352539 C-12.55615234 2.45352539 -12.55615234 1.79352539 -12.55615234 1.11352539 C-8.31356158 0.30619001 -4.316113 -0.00852987 0 0 Z " fill="#E5C64B" transform="translate(150.55615234375,94.886474609375)"/>
<path d="M0 0 C0.66 0 1.32 0 2 0 C2.98829433 23.09612312 3.30970871 45.91638398 2 69 C1.34 69 0.68 69 0 69 C0 46.23 0 23.46 0 0 Z " fill="#F2D672" transform="translate(258,148)"/>
<path d="M0 0 C6.21181226 2.7221775 10.22414607 8.31742066 13.84960938 13.81054688 C9.74513546 13.29278067 7.89261414 11.16427244 5.09960938 8.24804688 C4.30039063 7.42175781 3.50117188 6.59546875 2.67773438 5.74414062 C2.07445312 5.10605469 1.47117188 4.46796875 0.84960938 3.81054688 C-4.1881645 5.86297327 -7.38589651 9.90097888 -10.86914062 13.92382812 C-11.55556641 14.71176758 -11.55556641 14.71176758 -12.25585938 15.515625 C-13.19525221 16.59842654 -14.12481233 17.68982799 -15.04492188 18.7890625 C-18.52260921 22.7320742 -18.52260921 22.7320742 -21.99414062 23.16601562 C-22.70570313 23.04871094 -23.41726562 22.93140625 -24.15039062 22.81054688 C-24.48039063 21.49054688 -24.81039062 20.17054688 -25.15039062 18.81054688 C-24.41377197 18.72949707 -23.67715332 18.64844727 -22.91821289 18.56494141 C-19.51006633 17.6360208 -18.25735561 16.31205963 -15.86523438 13.74023438 C-15.08728516 12.92683594 -14.30933594 12.1134375 -13.5078125 11.27539062 C-11.88881231 9.54270761 -10.27163582 7.80831882 -8.65625 6.07226562 C-7.49125977 4.85603516 -7.49125977 4.85603516 -6.30273438 3.61523438 C-5.60140381 2.86226074 -4.90007324 2.10928711 -4.17749023 1.33349609 C-2.15039062 -0.18945312 -2.15039062 -0.18945312 0 0 Z " fill="#ECCB50" transform="translate(175.150390625,156.189453125)"/>
<path d="M0 0 C1.9375 0.8125 1.9375 0.8125 4 2 C4.495 3.485 4.495 3.485 5 5 C4.34 5.33 3.68 5.66 3 6 C2.01 5.67 1.02 5.34 0 5 C-0.61875 5.66 -1.2375 6.32 -1.875 7 C-4 9 -4 9 -6 9 C-6.27094482 9.59546631 -6.54188965 10.19093262 -6.82104492 10.80444336 C-7.98372682 12.96969462 -9.13826308 14.39614141 -10.86328125 16.12890625 C-11.42080078 16.68900391 -11.97832031 17.24910156 -12.55273438 17.82617188 C-13.13345703 18.39916016 -13.71417969 18.97214844 -14.3125 19.5625 C-14.88162109 20.13935547 -15.45074219 20.71621094 -16.03710938 21.31054688 C-19.15776183 24.41686797 -22.10189452 26.87997772 -26 29 C-28.37580018 30.70881764 -28.37580018 30.70881764 -30 33 C-30.33448259 36.167832 -30.33448259 36.167832 -30 39 C-31.32 38.01 -32.64 37.02 -34 36 C-32.65427113 33.00056095 -31.16462899 30.91923821 -28.83544922 28.60839844 C-27.87467972 27.64785553 -27.87467972 27.64785553 -26.89450073 26.66790771 C-26.20486237 25.98859192 -25.515224 25.30927612 -24.8046875 24.609375 C-24.09724396 23.90476135 -23.38980042 23.20014771 -22.66091919 22.47418213 C-20.40360138 20.2280461 -18.13942367 17.98896991 -15.875 15.75 C-14.34199047 14.22702283 -12.80943285 12.70359061 -11.27734375 11.1796875 C-7.52345427 7.44783185 -3.76391086 3.72174649 0 0 Z " fill="#281E09" transform="translate(174,129)"/>
<path d="M0 0 C0.33 0.66 0.66 1.32 1 2 C0.01 2.8971875 0.01 2.8971875 -1 3.8125 C-3.3373846 5.87501834 -3.3373846 5.87501834 -3 9 C-5.67293139 12.28017509 -8.69978311 15.21463574 -11.69750977 18.19848633 C-13.17871629 19.67872205 -14.63734438 21.1789324 -16.09570312 22.68164062 C-17.02705078 23.61556641 -17.95839844 24.54949219 -18.91796875 25.51171875 C-19.77156982 26.37240967 -20.6251709 27.23310059 -21.50463867 28.11987305 C-24.31429173 30.23680272 -25.56991418 30.44089592 -29 30 C-23.79395435 23.63109192 -23.79395435 23.63109192 -20.5625 21.0625 C-17.59226275 18.67182124 -15.30321428 15.98096638 -12.83203125 13.08984375 C-10.03982053 9.90469933 -7.0271176 6.95968181 -4 4 C-3.195625 3.195625 -2.39125 2.39125 -1.5625 1.5625 C-1.046875 1.046875 -0.53125 0.53125 0 0 Z " fill="#E2C64B" transform="translate(207,210)"/>
<path d="M0 0 C3.77070649 1.6672132 5.0709374 3.33478106 7 7 C5.96875 6.566875 4.9375 6.13375 3.875 5.6875 C-0.09375 4.53125 -0.09375 4.53125 -3.3125 7.125 C-5.59130017 9.56278623 -6.60188434 11.11056096 -8 14 C-10.67638824 16.40188688 -12.5765618 17.85885393 -16 19 C-16.66 20.32 -17.32 21.64 -18 23 C-20.97 22.67 -23.94 22.34 -27 22 C-27.33 19.69 -27.66 17.38 -28 15 C-26.02 16.65 -24.04 18.3 -22 20 C-18.53370165 18.51346494 -16.30977964 16.54277649 -13.671875 13.8671875 C-12.87265625 13.06152344 -12.0734375 12.25585938 -11.25 11.42578125 C-10.0125 10.16314453 -10.0125 10.16314453 -8.75 8.875 C-7.48929688 7.60076172 -7.48929688 7.60076172 -6.203125 6.30078125 C-4.13084317 4.20495077 -2.06337607 2.10459287 0 0 Z " fill="#372A0B" transform="translate(196,195)"/>
<path d="M0 0 C3.83566779 0.39851094 5.55398388 2.26279652 8.125 5 C10.77060724 7.89285588 10.77060724 7.89285588 14 10 C14 14 14 14 12.35546875 15.81640625 C11.64003906 16.39261719 10.92460937 16.96882813 10.1875 17.5625 C7.16521401 20.02084046 7.16521401 20.02084046 4.35546875 22.7109375 C3 24 3 24 1.125 24.0625 C-2.14844435 22.42577783 -3.78473729 19.89214854 -6 17 C-2.9168649 18.19899698 0.06279492 19.47700477 3 21 C3.33 20.01 3.66 19.02 4 18 C4.99 18 5.98 18 7 18 C7 17.01 7 16.02 7 15 C7.99 15 8.98 15 10 15 C8.72936492 10.03297196 6.95657311 7.28106063 3 4 C2.01 4 1.02 4 0 4 C-0.99 5.485 -0.99 5.485 -2 7 C-4.625 7.6875 -4.625 7.6875 -7 8 C-6.02133662 6.85373678 -5.04205413 5.70800212 -4.0625 4.5625 C-3.51722656 3.92441406 -2.97195312 3.28632813 -2.41015625 2.62890625 C-1.63204305 1.73008851 -0.84063472 0.84063472 0 0 Z " fill="#261D04" transform="translate(129,174)"/>
<path d="M0 0 C2.35964273 0.40683495 3.85934088 0.89814339 5.8125 2.3125 C7 4 7 4 6.87890625 5.77734375 C5.61492746 8.97380567 3.55518162 10.84095039 1.125 13.25 C0.24070313 14.14203125 -0.64359375 15.0340625 -1.5546875 15.953125 C-4 18 -4 18 -7 18 C-10.80197746 14.62046448 -14.03831335 10.72015145 -17.3515625 6.8671875 C-18.84464982 5.17596537 -20.38585753 3.57501175 -22 2 C-16.54721842 3.76413522 -12.76881925 7.12713256 -8.875 11.25 C-6.8793959 13.11256383 -5.66732705 13.61895328 -3 14 C-2.34 12.68 -1.68 11.36 -1 10 C-0.01 10 0.98 10 2 10 C2.33 7.69 2.66 5.38 3 3 C2.01 2.67 1.02 2.34 0 2 C0 1.34 0 0.68 0 0 Z " fill="#211606" transform="translate(202,158)"/>
<path d="M0 0 C1.32 0.66 2.64 1.32 4 2 C-2.27 8.27 -8.54 14.54 -15 21 C-13.25323081 24.49353838 -12.08594785 26.13945763 -9.375 28.75 C-8.42753906 29.67039063 -8.42753906 29.67039063 -7.4609375 30.609375 C-6.97882813 31.06828125 -6.49671875 31.5271875 -6 32 C-7.485 32.495 -7.485 32.495 -9 33 C-9 32.34 -9 31.68 -9 31 C-10.32 30.67 -11.64 30.34 -13 30 C-13 29.01 -13 28.02 -13 27 C-14.32 26.67 -15.64 26.34 -17 26 C-17 23.69 -17 21.38 -17 19 C-16.34 19 -15.68 19 -15 19 C-14.71125 18.21625 -14.4225 17.4325 -14.125 16.625 C-13 14 -13 14 -11 12 C-10.01 12 -9.02 12 -8 12 C-8 10.68 -8 9.36 -8 8 C-7.01 8 -6.02 8 -5 8 C-5 7.01 -5 6.02 -5 5 C-4.01 5 -3.02 5 -2 5 C-2 4.01 -2 3.02 -2 2 C-1.34 2 -0.68 2 0 2 C0 1.34 0 0.68 0 0 Z " fill="#E8CC51" transform="translate(156,142)"/>
<path d="M0 0 C3.0625 0.3125 3.0625 0.3125 4.9375 1.625 C6.0625 3.3125 6.0625 3.3125 6.0625 6.3125 C7.0525 6.3125 8.0425 6.3125 9.0625 6.3125 C10.0525 7.7975 10.0525 7.7975 11.0625 9.3125 C10.7325 10.3025 10.4025 11.2925 10.0625 12.3125 C8.93355124 11.37975891 7.80949124 10.44109878 6.6875 9.5 C6.06101563 8.97792969 5.43453125 8.45585937 4.7890625 7.91796875 C3.0625 6.3125 3.0625 6.3125 1.0625 3.3125 C-3.00581953 4.91663549 -5.6610113 7.84395948 -8.625 10.9375 C-10.37730459 12.75101058 -12.14360427 14.53936009 -13.9375 16.3125 C-14.2675 16.3125 -14.5975 16.3125 -14.9375 16.3125 C-14.9375 14.6625 -14.9375 13.0125 -14.9375 11.3125 C-13.9475 11.3125 -12.9575 11.3125 -11.9375 11.3125 C-11.9375 10.3225 -11.9375 9.3325 -11.9375 8.3125 C-11.15375 8.250625 -10.37 8.18875 -9.5625 8.125 C-8.69625 7.856875 -7.83 7.58875 -6.9375 7.3125 C-5.69035597 4.90297977 -5.69035597 4.90297977 -4.9375 2.3125 C-2.9375 0.3125 -2.9375 0.3125 0 0 Z " fill="#E8C953" transform="translate(174.9375,126.6875)"/>
<path d="M0 0 C0.12375 0.928125 0.12375 0.928125 0.25 1.875 C0.81258459 4.18437567 0.81258459 4.18437567 3.0625 5.25 C3.701875 5.4975 4.34125 5.745 5 6 C5 6.66 5 7.32 5 8 C5.66 8 6.32 8 7 8 C6.67 9.32 6.34 10.64 6 12 C3.03 9.03 0.06 6.06 -3 3 C-6.80449032 4.90224516 -8.71519936 6.50261339 -11.625 9.5 C-12.40101563 10.2940625 -13.17703125 11.088125 -13.9765625 11.90625 C-14.64429688 12.5971875 -15.31203125 13.288125 -16 14 C-16.66 14.66 -17.32 15.32 -18 16 C-18 14.68 -18 13.36 -18 12 C-17.34 12 -16.68 12 -16 12 C-16 10.68 -16 9.36 -16 8 C-15.34 8 -14.68 8 -14 8 C-13.67 7.34 -13.34 6.68 -13 6 C-12.01 6 -11.02 6 -10 6 C-10 5.01 -10 4.02 -10 3 C-9.34 3 -8.68 3 -8 3 C-8 2.34 -8 1.68 -8 1 C-5.29120665 -0.35439668 -2.99066732 -0.06501451 0 0 Z " fill="#F3D454" transform="translate(223,171)"/>
<path d="M0 0 C4.15773751 1.26217032 5.11258767 2.52254379 7.5 6.0625 C8.81494512 7.41397138 10.14264858 8.75362542 11.5 10.0625 C10.84 10.7225 10.18 11.3825 9.5 12.0625 C8.89671875 11.40121094 8.2934375 10.73992187 7.671875 10.05859375 C6.87265625 9.21425781 6.0734375 8.36992187 5.25 7.5 C4.46109375 6.65308594 3.6721875 5.80617187 2.859375 4.93359375 C0.74032991 2.87095243 0.74032991 2.87095243 -1.5 3 C-4.25302311 4.46254352 -6.09737723 6.37740858 -8.25 8.625 C-9.04921875 9.45128906 -9.8484375 10.27757812 -10.671875 11.12890625 C-11.57679687 12.08603516 -11.57679687 12.08603516 -12.5 13.0625 C-13.5 10.0625 -13.5 10.0625 -12.8125 8 C-11.24972954 5.69305313 -9.99213641 5.23527007 -7.5 4.0625 C-6.901875 3.340625 -6.30375 2.61875 -5.6875 1.875 C-3.5 0.0625 -3.5 0.0625 0 0 Z " fill="#E2C34D" transform="translate(131.5,171.9375)"/>
<path d="M0 0 C0.66 0 1.32 0 2 0 C2.66 1.98 3.32 3.96 4 6 C4.66 6 5.32 6 6 6 C6.13277344 6.68707031 6.26554688 7.37414062 6.40234375 8.08203125 C6.57894531 8.98308594 6.75554687 9.88414062 6.9375 10.8125 C7.11152344 11.70582031 7.28554688 12.59914062 7.46484375 13.51953125 C7.97741153 16.11397171 7.97741153 16.11397171 9 19 C9.06740865 20.56118428 9.08514456 22.1250252 9.0625 23.6875 C9.05347656 24.49574219 9.04445313 25.30398437 9.03515625 26.13671875 C9.02355469 26.75160156 9.01195312 27.36648437 9 28 C6.92837853 24.89256779 6.40310655 22.85675273 5.625 19.25 C4.16256137 13.1724284 2.62551129 8.26085695 -2.25 4.0625 C-2.8275 3.711875 -3.405 3.36125 -4 3 C-3.67 2.34 -3.34 1.68 -3 1 C-2.34 1 -1.68 1 -1 1 C-0.67 0.67 -0.34 0.34 0 0 Z " fill="#F2D363" transform="translate(249,119)"/>
<path d="M0 0 C6.48692147 0.74849094 10.86111328 6.79600029 14.703125 11.546875 C15.95780703 13.13287611 15.95780703 13.13287611 18 14 C18 14.66 18 15.32 18 16 C18.99 16.33 19.98 16.66 21 17 C21 18.65 21 20.3 21 22 C20.01 22 19.02 22 18 22 C17.91371338 21.42403076 17.82742676 20.84806152 17.73852539 20.25463867 C16.79088741 17.36160174 15.36484911 16.03892675 13.18359375 13.92578125 C12.41982422 13.17619141 11.65605469 12.42660156 10.86914062 11.65429688 C10.06669922 10.88150391 9.26425781 10.10871094 8.4375 9.3125 C6.85086144 7.76898352 5.2661135 6.22352034 3.68359375 4.67578125 C2.97775146 3.99427002 2.27190918 3.31275879 1.54467773 2.6105957 C0 1 0 1 0 0 Z " fill="#EECD54" transform="translate(190,143)"/>
<path d="M0 0 C2.97 0.495 2.97 0.495 6 1 C6 1.99 6 2.98 6 4 C6.99 4 7.98 4 9 4 C8.67 4.99 8.34 5.98 8 7 C7.01 6.34 6.02 5.68 5 5 C5 4.34 5 3.68 5 3 C0.76283838 4.3798898 -1.62329456 6.29533013 -4.6875 9.5 C-5.45449219 10.2940625 -6.22148437 11.088125 -7.01171875 11.90625 C-7.66785156 12.5971875 -8.32398438 13.288125 -9 14 C-9.66 14.66 -10.32 15.32 -11 16 C-11 14.68 -11 13.36 -11 12 C-10.34 12 -9.68 12 -9 12 C-8.87625 11.38125 -8.7525 10.7625 -8.625 10.125 C-8 8 -8 8 -6 6 C-5.01 6 -4.02 6 -3 6 C-3 5.01 -3 4.02 -3 3 C-2.34 3 -1.68 3 -1 3 C-0.67 2.01 -0.34 1.02 0 0 Z " fill="#F0D058" transform="translate(172,171)"/>
<path d="M0 0 C0.99 0.33 1.98 0.66 3 1 C1.26461877 2.87002288 -0.4859335 4.71988092 -2.25 6.5625 C-2.74113281 7.09552734 -3.23226562 7.62855469 -3.73828125 8.17773438 C-7.42100694 11.98321759 -7.42100694 11.98321759 -10.15625 12.0625 C-12.36419273 10.79012622 -13.65927905 9.42590119 -15.25 7.4375 C-15.77078125 6.79683594 -16.2915625 6.15617188 -16.828125 5.49609375 C-17.21484375 5.00238281 -17.6015625 4.50867188 -18 4 C-14.59687262 5.05875074 -11.98646769 6.00902154 -9 8 C-8.34 8 -7.68 8 -7 8 C-6.34 6.68 -5.68 5.36 -5 4 C-4.01 4 -3.02 4 -2 4 C-2 3.01 -2 2.02 -2 1 C-1.34 0.67 -0.68 0.34 0 0 Z " fill="#2A2108" transform="translate(162,164)"/>
<path d="M0 0 C0.33 0.99 0.66 1.98 1 3 C0.2884375 4.051875 0.2884375 4.051875 -0.4375 5.125 C-2.66892821 9.23082791 -2.20762001 12.36315303 -2 17 C-4.31 15.02 -6.62 13.04 -9 11 C-7.25323081 7.50646162 -6.08594785 5.86054237 -3.375 3.25 C-2.74335938 2.63640625 -2.11171875 2.0228125 -1.4609375 1.390625 C-0.73777344 0.70226562 -0.73777344 0.70226562 0 0 Z " fill="#27200D" transform="translate(171,176)"/>
<path d="M0 0 C0.33 0 0.66 0 1 0 C1 20.46 1 40.92 1 62 C0.67 62 0.34 62 0 62 C0 41.54 0 21.08 0 0 Z " fill="#ECC837" transform="translate(87,152)"/>
<path d="M0 0 C2.49361571 1.20381448 4.68143083 2.45428722 7 4 C6.528838 8.24045801 3.94670178 10.23875498 1 13 C-0.60820229 14.60012087 -2.21211822 16.20455736 -3.8125 17.8125 C-5.20833333 19.20833333 -6.60416667 20.60416667 -8 22 C-8.66 21.67 -9.32 21.34 -10 21 C-2.94975689 12.63371151 -2.94975689 12.63371151 0 10 C0.66 10 1.32 10 2 10 C2.17942163 6.05272412 2.09350689 3.4019487 0 0 Z " fill="#231804" transform="translate(202,202)"/>
<path d="M0 0 C0.33 0 0.66 0 1 0 C1.57163458 3.75745169 1.04074889 4.94221198 -1.1953125 8.11328125 C-2.15860347 9.19169078 -3.13572737 10.25787387 -4.125 11.3125 C-4.8365625 12.13717773 -4.8365625 12.13717773 -5.5625 12.97851562 C-8.14830301 15.79144998 -9.51283514 16.94857076 -13.3671875 17.35546875 C-14.23601562 17.23816406 -15.10484375 17.12085938 -16 17 C-15.505 15.515 -15.505 15.515 -15 14 C-14.40445313 13.85691406 -13.80890625 13.71382812 -13.1953125 13.56640625 C-10.19070489 12.7911961 -8.9664441 11.19196541 -6.875 8.9375 C-5.61987331 7.59001493 -4.33492972 6.26847218 -3 5 C-2.34 5 -1.68 5 -1 5 C-0.67 3.35 -0.34 1.7 0 0 Z " fill="#E8C74E" transform="translate(144,183)"/>
<path d="M0 0 C0.33 0.66 0.66 1.32 1 2 C1.66 2.33 2.32 2.66 3 3 C2.06894211 3.98529428 1.12987519 4.96302444 0.1875 5.9375 C-0.33457031 6.48277344 -0.85664063 7.02804688 -1.39453125 7.58984375 C-3 9 -3 9 -6 10 C-6.33 10.99 -6.66 11.98 -7 13 C-8.65 12.67 -10.3 12.34 -12 12 C-12 11.34 -12 10.68 -12 10 C-11.319375 9.608125 -10.63875 9.21625 -9.9375 8.8125 C-6.04320494 6.40963709 -3.13837888 3.30117663 0 0 Z " fill="#E7C34A" transform="translate(207,166)"/>
<path d="M0 0 C1.65 0 3.3 0 5 0 C5 0.66 5 1.32 5 2 C6.32 2.66 7.64 3.32 9 4 C9 4.66 9 5.32 9 6 C9.639375 6.268125 10.27875 6.53625 10.9375 6.8125 C13 8 13 8 14 11 C14.99 11.33 15.98 11.66 17 12 C16.67 12.99 16.34 13.98 16 15 C11.07933389 10.88270795 6.48196764 6.58839959 2 2 C1.34 1.34 0.68 0.68 0 0 Z " fill="#E1C14C" transform="translate(152,195)"/>
<path d="M0 0 C0 0.66 0 1.32 0 2 C-8.23016949 8.16833162 -16.74180482 11.55953792 -27 11 C-23.94424357 9.33583218 -20.99001463 8.36717464 -17.625 7.5 C-13.69558342 6.46372816 -9.83660314 5.3479957 -6 4 C-6 3.34 -6 2.68 -6 2 C-2.25 0 -2.25 0 0 0 Z " fill="#F4D45B" transform="translate(237,255)"/>
<path d="M0 0 C4 0 4 0 5.78125 1.64453125 C6.3484375 2.35996094 6.915625 3.07539063 7.5 3.8125 C9.79612182 6.67743381 11.97864666 8.89962937 15 11 C13.95125002 13.62187494 13.35068687 14.79371361 10.875 16.25 C10.25625 16.4975 9.6375 16.745 9 17 C8.67 16.01 8.34 15.02 8 14 C8.99 14 9.98 14 11 14 C9.59578698 9.53204949 7.3156598 7.23064288 4 4 C3.67 3.01 3.34 2.02 3 1 C1.68 1.33 0.36 1.66 -1 2 C-0.67 1.34 -0.34 0.68 0 0 Z " fill="#362606" transform="translate(173,174)"/>
<path d="M0 0 C5.44861192 0.80634849 9.23378036 4.79222545 12.5625 8.953125 C13.74685155 10.60852546 14.87879058 12.30119786 16 14 C11.97778475 13.4697989 10.22763777 11.5114386 7.5 8.625 C4.8052562 5.79182758 2.2001723 3.25466685 -1 1 C-0.67 0.67 -0.34 0.34 0 0 Z " fill="#EED058" transform="translate(173,156)"/>
<path d="M0 0 C2.4164124 0.48328248 4.65832183 1.21944061 7 2 C8.33106622 2.34227417 9.66400079 2.67751743 11 3 C10.20335937 3.32613281 9.40671875 3.65226562 8.5859375 3.98828125 C1.87706928 6.70774394 1.87706928 6.70774394 -4.625 9.875 C-5.40875 10.24625 -6.1925 10.6175 -7 11 C-7.66 10.67 -8.32 10.34 -9 10 C-8.44570312 9.66226563 -7.89140625 9.32453125 -7.3203125 8.9765625 C-6.59585938 8.53054687 -5.87140625 8.08453125 -5.125 7.625 C-4.04605469 6.96371094 -4.04605469 6.96371094 -2.9453125 6.2890625 C-0.88206418 5.0146287 -0.88206418 5.0146287 1 3 C0.34 2.34 -0.32 1.68 -1 1 C-0.67 0.67 -0.34 0.34 0 0 Z " fill="#E9CE5A" transform="translate(125,99)"/>
<path d="M0 0 C0.66 0.33 1.32 0.66 2 1 C1.31292969 1.59167969 0.62585938 2.18335937 -0.08203125 2.79296875 C-1.43361328 3.97826172 -1.43361328 3.97826172 -2.8125 5.1875 C-4.15248047 6.35345703 -4.15248047 6.35345703 -5.51953125 7.54296875 C-7.92058922 9.92133956 -9.40691603 12.04141549 -11 15 C-11.38542969 15.66644531 -11.77085938 16.33289063 -12.16796875 17.01953125 C-12.50441406 17.61121094 -12.84085937 18.20289063 -13.1875 18.8125 C-13.785625 19.864375 -14.38375 20.91625 -15 22 C-15.66 22 -16.32 22 -17 22 C-14.81514573 12.53229818 -7.28425268 5.88416255 0 0 Z " fill="#EFCC4B" transform="translate(114,110)"/>
<path d="M0 0 C0.33 0.99 0.66 1.98 1 3 C-1.10078511 6.07614963 -2.88621595 7.92414397 -6 10 C-8.5 10.3125 -8.5 10.3125 -11 10 C-12.8125 8.5 -12.8125 8.5 -14 7 C-13.67 6.01 -13.34 5.02 -13 4 C-12.5875 4.515625 -12.175 5.03125 -11.75 5.5625 C-10.88375 6.2740625 -10.88375 6.2740625 -10 7 C-6.63643952 6.61401765 -5.02473201 5.36732738 -2.75 2.9375 C-2.22921875 2.38964844 -1.7084375 1.84179688 -1.171875 1.27734375 C-0.78515625 0.85582031 -0.3984375 0.43429688 0 0 Z " fill="#DAB94F" transform="translate(183,190)"/>
<path d="M0 0 C0.66 0.99 1.32 1.98 2 3 C1.67 3.99 1.34 4.98 1 6 C1 5.34 1 4.68 1 4 C-1.64593488 2.87389103 -1.64593488 2.87389103 -5 3 C-7.67631874 5.04062626 -9.83557436 7.43214591 -12 10 C-12.625 8.125 -12.625 8.125 -13 6 C-12.34 5.34 -11.68 4.68 -11 4 C-10.01 4 -9.02 4 -8 4 C-8 3.01 -8 2.02 -8 1 C-5.21136993 -0.39431504 -3.07921132 -0.25660094 0 0 Z " fill="#2F2708" transform="translate(178,154)"/>
<path d="M0 0 C2.8822106 2.8822106 2.9689061 6.24869013 3.625 10.125 C3.7590625 10.87910156 3.893125 11.63320312 4.03125 12.41015625 C4.36123229 14.27219918 4.68154073 16.13595175 5 18 C3.68 18 2.36 18 1 18 C0.04380267 14.00204108 -0.1039592 10.29196078 -0.0625 6.1875 C-0.05347656 5.02605469 -0.04445313 3.86460937 -0.03515625 2.66796875 C-0.02355469 1.78753906 -0.01195313 0.90710938 0 0 Z M1 13 C2 15 2 15 2 15 Z " fill="#F4DB6E" transform="translate(90,213)"/>
<path d="M0 0 C1.98 1.65 3.96 3.3 6 5 C8.49361571 3.79618552 10.68143083 2.54571278 13 1 C11.125 5.75 11.125 5.75 10 8 C7.03 7.67 4.06 7.34 1 7 C0.67 4.69 0.34 2.38 0 0 Z " fill="#433613" transform="translate(168,210)"/>
<path d="M0 0 C6.43812562 2.082923 10.91473408 6.00087183 14 12 C11 12 11 12 9.31640625 10.64453125 C8.73761719 10.03996094 8.15882813 9.43539062 7.5625 8.8125 C6.9540625 8.17828125 6.345625 7.5440625 5.71875 6.890625 C3.70285292 4.67313821 1.809638 2.38872216 0 0 Z " fill="#43340E" transform="translate(180,160)"/>
<path d="M0 0 C4 2 4 2 6 5 C4.96875 4.896875 3.9375 4.79375 2.875 4.6875 C-2.15723716 5.09332558 -3.46344709 6.54970448 -7 10 C-7.66 9.67 -8.32 9.34 -9 9 C-6.03 6.03 -3.06 3.06 0 0 Z " fill="#403209" transform="translate(218,173)"/>
<path d="M0 0 C3 1 3 1 3.94921875 2.75 C5.79880219 8.38682571 6.28237195 13.07018906 6 19 C3.92523036 15.88784553 3.28935087 13.67060134 2.4375 10.0625 C2.18871094 9.02222656 1.93992188 7.98195312 1.68359375 6.91015625 C1.45800781 5.94980469 1.23242188 4.98945313 1 4 C0.66924427 2.66602491 0.33710913 1.3323837 0 0 Z " fill="#F4D870" transform="translate(252,128)"/>
<path d="M0 0 C0.66 0 1.32 0 2 0 C1.45015228 3.87511727 -0.27555331 5.59576506 -3.0625 8.25 C-3.79597656 8.95640625 -4.52945313 9.6628125 -5.28515625 10.390625 C-5.85105469 10.92171875 -6.41695313 11.4528125 -7 12 C-8 9 -8 9 -7.3125 6.9375 C-5.76733453 4.65654145 -4.45626025 4.15137199 -2 3 C-1.34 2.01 -0.68 1.02 0 0 Z " fill="#E8CE54" transform="translate(126,173)"/>
<path d="M0 0 C3.91939465 3.80411834 7.49102731 7.81576108 11 12 C5.86825042 10.92997562 2.89636272 8.34454408 0 4 C0 2.68 0 1.36 0 0 Z " fill="#EBCD57" transform="translate(117,185)"/>
<path d="M0 0 C0.598125 0.763125 1.19625 1.52625 1.8125 2.3125 C3.8280426 4.91570291 3.8280426 4.91570291 5.75 6.625 C7 8 7 8 7 11 C3.18315774 9.44499019 0.80804268 6.96404505 -2 4 C-1.34 2.68 -0.68 1.36 0 0 Z " fill="#44340C" transform="translate(208,183)"/>
<path d="M0 0 C0 3 0 3 -1.53125 4.61328125 C-2.50578125 5.45439453 -2.50578125 5.45439453 -3.5 6.3125 C-6.60812431 9.22084414 -6.60812431 9.22084414 -7.4375 13.4375 C-7.293125 14.283125 -7.14875 15.12875 -7 16 C-8.32 15.01 -9.64 14.02 -11 13 C-9.46356148 9.31930113 -7.21849055 7.01224796 -4.375 4.25 C-3.55773437 3.45078125 -2.74046875 2.6515625 -1.8984375 1.828125 C-0.95871094 0.92320312 -0.95871094 0.92320312 0 0 Z " fill="#342403" transform="translate(151,152)"/>
<path d="M0 0 C2.35964273 0.40683495 3.85934088 0.89814339 5.8125 2.3125 C7 4 7 4 6.875 6.0625 C6 8 6 8 3 10 C3 7.69 3 5.38 3 3 C2.01 2.67 1.02 2.34 0 2 C0 1.34 0 0.68 0 0 Z " fill="#2B1F09" transform="translate(202,158)"/>
<path d="M0 0 C-3.5397007 2.35980046 -5.99106288 2.58600808 -10.1875 3.125 C-11.45980469 3.29257813 -12.73210937 3.46015625 -14.04296875 3.6328125 C-15.01878906 3.75398438 -15.99460938 3.87515625 -17 4 C-17 3.34 -17 2.68 -17 2 C-5.47835991 -1.62870159 -5.47835991 -1.62870159 0 0 Z " fill="#F0D875" transform="translate(146,98)"/>
<path d="M0 0 C1.15224028 0.92961422 2.29659176 1.8690125 3.4375 2.8125 C4.07558594 3.33457031 4.71367187 3.85664063 5.37109375 4.39453125 C7 6 7 6 8 9 C6.35 9.66 4.7 10.32 3 11 C3.061875 10.236875 3.12375 9.47375 3.1875 8.6875 C2.96466081 5.49347163 2.26680076 5.0779007 0 3 C0 2.01 0 1.02 0 0 Z " fill="#392B08" transform="translate(224,178)"/>
<path d="M0 0 C0.33 0.66 0.66 1.32 1 2 C-0.4375 4.625 -0.4375 4.625 -2 7 C-4.97 6.505 -4.97 6.505 -8 6 C-8 4.35 -8 2.7 -8 1 C-6.515 1.99 -6.515 1.99 -5 3 C-4.01 3 -3.02 3 -2 3 C-1.34 2.01 -0.68 1.02 0 0 Z " fill="#DEBF4B" transform="translate(223,194)"/>
<path d="M0 0 C0.66 0.33 1.32 0.66 2 1 C0.56036361 4.35915158 -1.12416589 6.71624938 -4 9 C-6.25 8.75 -6.25 8.75 -8 8 C-8 7.34 -8 6.68 -8 6 C-6.68 6 -5.36 6 -4 6 C-4 5.34 -4 4.68 -4 4 C-2.68 3.67 -1.36 3.34 0 3 C0 2.01 0 1.02 0 0 Z " fill="#231A05" transform="translate(180,189)"/>
<path d="M0 0 C2.97 0.495 2.97 0.495 6 1 C6 1.99 6 2.98 6 4 C6.99 4 7.98 4 9 4 C8.67 4.99 8.34 5.98 8 7 C7.01 6.34 6.02 5.68 5 5 C5 4.34 5 3.68 5 3 C3.02 3.66 1.04 4.32 -1 5 C-0.67 3.35 -0.34 1.7 0 0 Z " fill="#E7C64F" transform="translate(172,171)"/>
<path d="M0 0 C3.21524305 1.40844718 5.32183868 3.10344786 7.75 5.625 C8.67039063 6.57246094 8.67039063 6.57246094 9.609375 7.5390625 C10.29773438 8.26222656 10.29773438 8.26222656 11 9 C10.01 9.33 9.02 9.66 8 10 C8 9.34 8 8.68 8 8 C6.68 7.67 5.36 7.34 4 7 C4 6.01 4 5.02 4 4 C2.68 3.67 1.36 3.34 0 3 C0 2.01 0 1.02 0 0 Z " fill="#F1D357" transform="translate(139,165)"/>
<path d="M0 0 C0.33 0.99 0.66 1.98 1 3 C0 5 0 5 -2.4375 6.375 C-5.12407748 8.07868328 -5.89489103 9.08653091 -7 12 C-7.66 11.67 -8.32 11.34 -9 11 C-7.59155282 7.78475695 -5.89655214 5.67816132 -3.375 3.25 C-2.74335938 2.63640625 -2.11171875 2.0228125 -1.4609375 1.390625 C-0.73777344 0.70226562 -0.73777344 0.70226562 0 0 Z " fill="#3D2C06" transform="translate(171,176)"/>
<path d="M0 0 C-1.48781815 3.78717347 -3.61988409 5.77407001 -7 8 C-7.99 7.67 -8.98 7.34 -10 7 C-8.90536178 5.82438854 -7.79892814 4.6597511 -6.6875 3.5 C-6.07261719 2.8503125 -5.45773438 2.200625 -4.82421875 1.53125 C-3 0 -3 0 0 0 Z " fill="#E3C750" transform="translate(174,158)"/>
<path d="M0 0 C5.75 1.875 5.75 1.875 8 3 C8 4.65 8 6.3 8 8 C7.01 8 6.02 8 5 8 C5.33 7.01 5.66 6.02 6 5 C5.38125 4.731875 4.7625 4.46375 4.125 4.1875 C2 3 2 3 0 0 Z " fill="#D9B945" transform="translate(203,201)"/>
<path d="M0 0 C0.928125 0.165 1.85625 0.33 2.8125 0.5 C5.95621353 1.07748388 5.95621353 1.07748388 9 1 C8.01 2.32 7.02 3.64 6 5 C4.125 4.75 4.125 4.75 2 4 C0.75 1.9375 0.75 1.9375 0 0 Z " fill="#241A05" transform="translate(215,193)"/>
<path d="M0 0 C0.66 0 1.32 0 2 0 C1.67 1.65 1.34 3.3 1 5 C-0.98 5.66 -2.96 6.32 -5 7 C-3.47793991 4.37098712 -2.15634036 2.15634036 0 0 Z " fill="#DFC34B" transform="translate(230,187)"/>
<path d="M0 0 C0.33 0 0.66 0 1 0 C1 8.25 1 16.5 1 25 C0.67 25 0.34 25 0 25 C0 16.75 0 8.5 0 0 Z " fill="#F4D975" transform="translate(262,173)"/>
<path d="M0 0 C0.33 0 0.66 0 1 0 C1.4375 2.125 1.4375 2.125 1 5 C-1.12689146 7.276147 -3.5023433 9.1458722 -6 11 C-6.66 10.67 -7.32 10.34 -8 10 C-4 6 -4 6 -2.3125 4.4375 C-0.74722111 2.91856078 -0.74722111 2.91856078 0 0 Z " fill="#FAD745" transform="translate(211,206)"/>
<path d="M0 0 C4.875 1.75 4.875 1.75 6 4 C4.6696875 3.62875 4.6696875 3.62875 3.3125 3.25 C-0.1170551 2.64710348 -0.1170551 2.64710348 -2.875 4.9375 C-3.57625 5.618125 -4.2775 6.29875 -5 7 C-5.66 6.67 -6.32 6.34 -7 6 C-4.69 4.02 -2.38 2.04 0 0 Z " fill="#1C1A16" transform="translate(196,199)"/>
<path d="M0 0 C1.32 0.33 2.64 0.66 4 1 C2.95125002 3.62187494 2.35068687 4.79371361 -0.125 6.25 C-0.74375 6.4975 -1.3625 6.745 -2 7 C-2.33 6.01 -2.66 5.02 -3 4 C-2.01 4 -1.02 4 0 4 C0 2.68 0 1.36 0 0 Z " fill="#41300B" transform="translate(184,184)"/>
<path d="M0 0 C-2.33539809 1.55693206 -4.57968756 2.90200646 -7.0625 4.1875 C-7.75472656 4.55230469 -8.44695312 4.91710937 -9.16015625 5.29296875 C-9.76730469 5.52628906 -10.37445313 5.75960937 -11 6 C-11.66 5.67 -12.32 5.34 -13 5 C-4.738041 -0.74031891 -4.738041 -0.74031891 0 0 Z " fill="#EFCD48" transform="translate(129,104)"/>
<path d="M0 0 C2.875 -0.1875 2.875 -0.1875 6 0 C6.66 0.99 7.32 1.98 8 3 C7.67 3.99 7.34 4.98 7 6 C7 5.34 7 4.68 7 4 C4.69 3.67 2.38 3.34 0 3 C0 2.01 0 1.02 0 0 Z " fill="#463B16" transform="translate(172,154)"/>
<path d="M0 0 C0.99 0.33 1.98 0.66 3 1 C0.6875 3.5 0.6875 3.5 -2 6 C-2.99 6 -3.98 6 -5 6 C-5.33 5.34 -5.66 4.68 -6 4 C-4.7934375 3.566875 -4.7934375 3.566875 -3.5625 3.125 C-0.8673532 2.26737432 -0.8673532 2.26737432 0 0 Z " fill="#FBD843" transform="translate(179,240)"/>
<path d="M0 0 C0.556875 0.474375 1.11375 0.94875 1.6875 1.4375 C4.18346074 3.12395996 6.0446237 3.58953107 9 4 C8.67 4.66 8.34 5.32 8 6 C3.50347222 6.36458333 3.50347222 6.36458333 1.1875 4.6875 C0 3 0 3 0 0 Z " fill="#ECC952" transform="translate(169,194)"/>
<path d="M0 0 C0.66 0.33 1.32 0.66 2 1 C-0.31 3.31 -2.62 5.62 -5 8 C-5 4.86248779 -4.64820195 3.60242414 -3 1 C-2.01 0.67 -1.02 0.34 0 0 Z M-8 8 C-6 9 -6 9 -6 9 Z " fill="#FAD645" transform="translate(227,193)"/>
<path d="M0 0 C1.65 0 3.3 0 5 0 C0.25 4.875 0.25 4.875 -2 6 C-2.66 5.34 -3.32 4.68 -4 4 C-2.68 3.34 -1.36 2.68 0 2 C0 1.34 0 0.68 0 0 Z " fill="#F4D354" transform="translate(149,194)"/>
<path d="M0 0 C1.52745657 3.05491313 2 5.58012972 2 9 C0.35 7.68 -1.3 6.36 -3 5 C-1.125 1.125 -1.125 1.125 0 0 Z " fill="#342403" transform="translate(121,182)"/>
<path d="M0 0 C1.32 0.33 2.64 0.66 4 1 C4 2.32 4 3.64 4 5 C2.02 5.99 2.02 5.99 0 7 C0 4.69 0 2.38 0 0 Z " fill="#372705" transform="translate(139,183)"/>
<path d="M0 0 C0.66 0 1.32 0 2 0 C1.64950425 3.24208567 1.43778819 4.61527704 -1.0625 6.8125 C-1.701875 7.204375 -2.34125 7.59625 -3 8 C-3 6.35 -3 4.7 -3 3 C-2.01 3 -1.02 3 0 3 C0 2.01 0 1.02 0 0 Z " fill="#EBCD4E" transform="translate(163,135)"/>
<path d="M0 0 C4.41889613 1.35021826 6.34345343 3.26115668 9 7 C6.62051228 6.82374165 5.29774151 6.30280227 3.62109375 4.59765625 C2.37884514 3.09350908 1.18623944 1.54870149 0 0 Z " fill="#342405" transform="translate(123,191)"/>
<path d="M0 0 C0.66 1.32 1.32 2.64 2 4 C0.824375 4.2165625 0.824375 4.2165625 -0.375 4.4375 C-2.96421018 4.87798925 -2.96421018 4.87798925 -5 6 C-4.625 3.5625 -4.625 3.5625 -4 1 C-2 0 -2 0 0 0 Z " fill="#1A170F" transform="translate(176,175)"/>
<path d="M0 0 C0.33 0 0.66 0 1 0 C1 5.61 1 11.22 1 17 C0.67 17 0.34 17 0 17 C0 11.39 0 5.78 0 0 Z " fill="#EFD26A" transform="translate(261,200)"/>
<path d="M0 0 C2.31 1.98 4.62 3.96 7 6 C6.01 6.495 6.01 6.495 5 7 C4.01 6.67 3.02 6.34 2 6 C0.8125 2.9375 0.8125 2.9375 0 0 Z " fill="#F6D556" transform="translate(206,187)"/>
<path d="M0 0 C0.33 0 0.66 0 1 0 C1 3.96 1 7.92 1 12 C0.67 12 0.34 12 0 12 C0 8.04 0 4.08 0 0 Z " fill="#F5D874" transform="translate(262,159)"/>
<path d="M0 0 C2.97 0 5.94 0 9 0 C9 0.33 9 0.66 9 1 C6.03 1 3.06 1 0 1 C0 0.67 0 0.34 0 0 Z " fill="#EFD25F" transform="translate(184,269)"/>
<path d="M0 0 C0.33 0 0.66 0 1 0 C1 2.64 1 5.28 1 8 C0.67 8 0.34 8 0 8 C0 5.36 0 2.72 0 0 Z " fill="#EED36F" transform="translate(261,148)"/>
<path d="M0 0 C1.98 0 3.96 0 6 0 C6 0.33 6 0.66 6 1 C4.02 1 2.04 1 0 1 C0 0.67 0 0.34 0 0 Z " fill="#EDCF5C" transform="translate(135,268)"/>
<path d="M0 0 C1.98 0.99 1.98 0.99 4 2 C3.01 2 2.02 2 1 2 C0.67 1.34 0.34 0.68 0 0 Z " fill="#ECCC54" transform="translate(109,255)"/>
<path d="M0 0 C0.33 0 0.66 0 1 0 C1 1.98 1 3.96 1 6 C0.67 6 0.34 6 0 6 C0 4.02 0 2.04 0 0 Z " fill="#EED153" transform="translate(89,220)"/>
<path d="M0 0 C0.33 0 0.66 0 1 0 C1 1.98 1 3.96 1 6 C0.67 6 0.34 6 0 6 C0 4.02 0 2.04 0 0 Z " fill="#F4D96C" transform="translate(260,142)"/>
<path d="M0 0 C0.99 0.495 0.99 0.495 2 1 C1.67 2.32 1.34 3.64 1 5 C0.67 3.35 0.34 1.7 0 0 Z " fill="#EFD26A" transform="translate(256,130)"/>
<path d="M0 0 C0.99 0.66 1.98 1.32 3 2 C1.35 2 -0.3 2 -2 2 C-1.34 1.34 -0.68 0.68 0 0 Z " fill="#E2C349" transform="translate(135,96)"/>
<path d="M0 0 C0.33 0 0.66 0 1 0 C1 1.65 1 3.3 1 5 C0.67 5 0.34 5 0 5 C0 3.35 0 1.7 0 0 Z " fill="#F2D562" transform="translate(260,217)"/>
<path d="M0 0 C0.33 0 0.66 0 1 0 C1 1.65 1 3.3 1 5 C0.67 5 0.34 5 0 5 C0 3.35 0 1.7 0 0 Z " fill="#F0D354" transform="translate(88,215)"/>
<path d="M0 0 C0.33 0 0.66 0 1 0 C1 1.65 1 3.3 1 5 C0.67 5 0.34 5 0 5 C0 3.35 0 1.7 0 0 Z " fill="#EECE4B" transform="translate(89,140)"/>
<path d="M0 0 C0.99 0.33 1.98 0.66 3 1 C1.68 1.33 0.36 1.66 -1 2 C-0.67 1.34 -0.34 0.68 0 0 Z " fill="#E8CF65" transform="translate(121,101)"/>
<path d="M0 0 C1.65 0 3.3 0 5 0 C5 0.33 5 0.66 5 1 C3.35 1 1.7 1 0 1 C0 0.67 0 0.34 0 0 Z " fill="#E9CD5B" transform="translate(208,96)"/>
<path d="M0 0 C4 1 4 1 4 1 Z " fill="#EDD05C" transform="translate(214,267)"/>
<path d="M0 0 C4 1 4 1 4 1 Z " fill="#EBCD5E" transform="translate(131,267)"/>
<path d="M0 0 C4 1 4 1 4 1 Z " fill="#EDCF59" transform="translate(218,266)"/>
<path d="M0 0 C0.99 0.33 1.98 0.66 3 1 C2.01 1 1.02 1 0 1 C0 0.67 0 0.34 0 0 Z " fill="#EBCA50" transform="translate(227,263)"/>
<path d="M0 0 C1 4 1 4 1 4 Z " fill="#EFCE5B" transform="translate(258,226)"/>
<path d="M0 0 C1 4 1 4 1 4 Z " fill="#EECE49" transform="translate(88,145)"/>
<path d="M0 0 C1 4 1 4 1 4 Z " fill="#F0D469" transform="translate(259,138)"/>
<path d="M0 0 C0.33 0.66 0.66 1.32 1 2 C0.01 1.67 -0.98 1.34 -2 1 C-1.34 0.67 -0.68 0.34 0 0 Z " fill="#E8CA59" transform="translate(220,97)"/>
<path d="M0 0 C4 1 4 1 4 1 Z " fill="#E6C955" transform="translate(129,98)"/>
<path d="M0 0 C4 1 4 1 4 1 Z " fill="#E8CB5D" transform="translate(214,97)"/>
<path d="M0 0 C3 1 3 1 3 1 Z " fill="#ECCD5B" transform="translate(128,266)"/>
<path d="M0 0 C3 1 3 1 3 1 Z " fill="#EBCD5A" transform="translate(125,265)"/>
<path d="M0 0 C3 1 3 1 3 1 Z " fill="#EECE55" transform="translate(224,264)"/>
<path d="M0 0 C0.33 0.66 0.66 1.32 1 2 C0.34 1.67 -0.32 1.34 -1 1 C-0.67 0.67 -0.34 0.34 0 0 Z " fill="#F0CE55" transform="translate(238,256)"/>
<path d="M0 0 C0.33 0.66 0.66 1.32 1 2 C0.34 1.67 -0.32 1.34 -1 1 C-0.67 0.67 -0.34 0.34 0 0 Z " fill="#ECC94E" transform="translate(243,252)"/>
<path d="M0 0 C0.66 0.66 1.32 1.32 2 2 C1.34 2 0.68 2 0 2 C0 1.34 0 0.68 0 0 Z " fill="#EECE53" transform="translate(105,251)"/>
<path d="" fill="#F1D369" transform="translate(0,0)"/>
<path d="" fill="#F1D35C" transform="translate(0,0)"/>
<path d="M0 0 C3 1 3 1 3 1 Z " fill="#EAD069" transform="translate(221,99)"/>
<path d="M0 0 C2 1 2 1 2 1 Z " fill="#D6B432" transform="translate(188,271)"/>
<path d="" fill="#D2B132" transform="translate(0,0)"/>
<path d="M0 0 C2 1 2 1 2 1 Z " fill="#F0D25F" transform="translate(194,269)"/>
<path d="M0 0 C2 1 2 1 2 1 Z " fill="#EDCF59" transform="translate(222,265)"/>
<path d="M0 0 C2 1 2 1 2 1 Z " fill="#ECCD56" transform="translate(123,264)"/>
<path d="M0 0 C2 1 2 1 2 1 Z " fill="#EBCC55" transform="translate(121,263)"/>
<path d="M0 0 C2 1 2 1 2 1 Z " fill="#EDCB50" transform="translate(229,262)"/>
<path d="M0 0 C2 1 2 1 2 1 Z " fill="#EBCB53" transform="translate(119,262)"/>
<path d="M0 0 C2 1 2 1 2 1 Z " fill="#EDCB4F" transform="translate(231,261)"/>
<path d="M0 0 C2 1 2 1 2 1 Z " fill="#EBCB52" transform="translate(116,260)"/>
<path d="M0 0 C2 1 2 1 2 1 Z " fill="#F1CE54" transform="translate(235,258)"/>
<path d="M0 0 C2 1 2 1 2 1 Z " fill="#EBCB51" transform="translate(113,258)"/>
<path d="" fill="#EFD362" transform="translate(0,0)"/>
<path d="" fill="#F3D770" transform="translate(0,0)"/>
<path d="" fill="#F2D660" transform="translate(0,0)"/>
<path d="" fill="#F0D361" transform="translate(0,0)"/>
<path d="" fill="#F3D86A" transform="translate(0,0)"/>
<path d="M0 0 C2 1 2 1 2 1 Z " fill="#F1D269" transform="translate(236,107)"/>
<path d="M0 0 C2 1 2 1 2 1 Z " fill="#EACF68" transform="translate(112,107)"/>
<path d="M0 0 C2 1 2 1 2 1 Z " fill="#F0D168" transform="translate(233,105)"/>
<path d="M0 0 C2 1 2 1 2 1 Z " fill="#EACF63" transform="translate(116,104)"/>
<path d="M0 0 C2 1 2 1 2 1 Z " fill="#EED168" transform="translate(230,103)"/>
<path d="M0 0 C2 1 2 1 2 1 Z " fill="#E7CE65" transform="translate(118,103)"/>
<path d="M0 0 C2 1 2 1 2 1 Z " fill="#EFD36A" transform="translate(228,102)"/>
<path d="M0 0 C2 1 2 1 2 1 Z " fill="#EDD16D" transform="translate(226,101)"/>
<path d="M0 0 C2 1 2 1 2 1 Z " fill="#EED26A" transform="translate(224,100)"/>
<path d="" fill="#D2B032" transform="translate(0,0)"/>
<path d="" fill="#D6B432" transform="translate(0,0)"/>
<path d="" fill="#C7A82F" transform="translate(0,0)"/>
<path d="" fill="#EBCE58" transform="translate(0,0)"/>
<path d="" fill="#D1B032" transform="translate(0,0)"/>
<path d="" fill="#D5B332" transform="translate(0,0)"/>
<path d="" fill="#D4B232" transform="translate(0,0)"/>
<path d="" fill="#CFAE31" transform="translate(0,0)"/>
<path d="" fill="#D6B432" transform="translate(0,0)"/>
<path d="" fill="#ECCB53" transform="translate(0,0)"/>
<path d="" fill="#EECD51" transform="translate(0,0)"/>
<path d="" fill="#EFCD50" transform="translate(0,0)"/>
<path d="" fill="#EBCB51" transform="translate(0,0)"/>
<path d="" fill="#EDCD5B" transform="translate(0,0)"/>
<path d="" fill="#E1BD33" transform="translate(0,0)"/>
<path d="" fill="#EFCF52" transform="translate(0,0)"/>
<path d="" fill="#F0D053" transform="translate(0,0)"/>
<path d="" fill="#EECB4D" transform="translate(0,0)"/>
<path d="" fill="#E3BE33" transform="translate(0,0)"/>
<path d="" fill="#EECC4E" transform="translate(0,0)"/>
<path d="" fill="#EECE53" transform="translate(0,0)"/>
<path d="" fill="#E2BE33" transform="translate(0,0)"/>
<path d="" fill="#E2BD32" transform="translate(0,0)"/>
<path d="" fill="#E5BF32" transform="translate(0,0)"/>
<path d="" fill="#E5BF32" transform="translate(0,0)"/>
<path d="" fill="#E4BF32" transform="translate(0,0)"/>
<path d="" fill="#EAC73B" transform="translate(0,0)"/>
<path d="" fill="#E2BD32" transform="translate(0,0)"/>
<path d="" fill="#F0D473" transform="translate(0,0)"/>
<path d="" fill="#E9C335" transform="translate(0,0)"/>
<path d="" fill="#E3BE34" transform="translate(0,0)"/>
<path d="" fill="#E2BD33" transform="translate(0,0)"/>
<path d="" fill="#D9B531" transform="translate(0,0)"/>
<path d="" fill="#EAC536" transform="translate(0,0)"/>
<path d="" fill="#E8C235" transform="translate(0,0)"/>
<path d="" fill="#E5BF34" transform="translate(0,0)"/>
<path d="" fill="#F2D467" transform="translate(0,0)"/>
<path d="" fill="#F3D569" transform="translate(0,0)"/>
<path d="" fill="#DAB731" transform="translate(0,0)"/>
<path d="" fill="#DBB732" transform="translate(0,0)"/>
<path d="" fill="#E9C436" transform="translate(0,0)"/>
<path d="" fill="#E7C235" transform="translate(0,0)"/>
<path d="" fill="#EBC73E" transform="translate(0,0)"/>
<path d="" fill="#F0D76C" transform="translate(0,0)"/>
<path d="" fill="#F1D66B" transform="translate(0,0)"/>
<path d="" fill="#EFD369" transform="translate(0,0)"/>
<path d="" fill="#F3D66D" transform="translate(0,0)"/>
<path d="" fill="#F0D467" transform="translate(0,0)"/>
<path d="" fill="#D6B331" transform="translate(0,0)"/>
<path d="" fill="#EBD168" transform="translate(0,0)"/>
<path d="" fill="#E1BD34" transform="translate(0,0)"/>
<path d="" fill="#EACF63" transform="translate(0,0)"/>
<path d="" fill="#DFBB35" transform="translate(0,0)"/>
<path d="" fill="#F1D369" transform="translate(0,0)"/>
<path d="" fill="#EBD26C" transform="translate(0,0)"/>
<path d="" fill="#E9CF68" transform="translate(0,0)"/>
<path d="" fill="#DCB834" transform="translate(0,0)"/>
<path d="" fill="#F0D268" transform="translate(0,0)"/>
<path d="" fill="#DBB835" transform="translate(0,0)"/>
<path d="" fill="#D1AF32" transform="translate(0,0)"/>
<path d="" fill="#D8B634" transform="translate(0,0)"/>
</svg>
